<svg width="375" height="375" viewBox="0 0 375 375" fill="none" xmlns="http://www.w3.org/2000/svg">
<path fill-rule="evenodd" clip-rule="evenodd" d="M270.477 98.8141C299.5 126.37 307.606 167.464 305.475 207.418C303.433 245.703 292.029 286.422 259.398 306.543C229.044 325.259 192.639 306.95 158.024 298.338C122.993 289.622 81.1083 289.246 63.4124 257.781C44.6142 224.357 57.9497 183.777 74.0204 148.972C91.2201 111.721 113.595 73.1382 153.354 62.9873C194.965 52.3636 239.325 69.2374 270.477 98.8141Z" fill="black"/>
<g clip-path="url(#clip0_188_884)">
<path d="M205.412 84.5922C206.874 84.2734 208.372 84.8377 209.749 85.4245C236.108 96.6553 256.674 120.647 263.745 148.412C270.815 176.177 264.229 207.084 246.452 229.554C228.676 252.024 200.115 265.546 171.468 265.054C170.886 268.381 170.303 271.709 169.721 275.036C169.72 272.216 169.675 269.232 168.196 266.831C166.716 264.43 163.249 263.024 160.983 264.702C157.887 268.4 160.28 275.1 165.018 276C164.091 278.173 160.518 277.496 159.317 275.461C158.115 273.427 158.388 270.894 158.203 268.538C158.018 266.183 156.931 263.474 154.614 263.012C147.736 261.64 140.989 259.608 134.497 256.953C130.296 255.235 125.454 251.859 126.438 247.428C127.165 244.155 131.038 242.402 134.362 242.843C137.686 243.283 140.553 245.31 143.269 247.275C144.686 242.379 146.103 237.482 147.52 232.585C143.06 232.792 141.809 226.258 138.051 223.847C120.858 212.817 109.397 193.321 108.12 172.934C106.844 152.547 115.784 131.773 131.467 118.685C147.15 105.597 169.188 100.518 189.018 105.421C191.37 102.527 195.769 101.525 199.143 103.114C202.298 101.504 202.137 97.0384 201.741 93.5186C201.344 89.9988 201.951 85.3466 205.412 84.5922ZM149.769 248.837C148.47 247.399 149.745 248.25 149.745 248.25L149.769 249V249.342C149.769 249.342 146.62 248.124 145.108 247.63C170.969 256.366 201.064 251.284 222.623 234.541C244.182 217.798 256.555 189.897 254.493 162.679C252.43 135.46 235.994 109.742 212.159 96.4386C211.591 96.1213 210.954 95.8002 210.318 95.9383C209.501 96.1157 209.036 96.958 208.677 97.7132C207.481 100.23 206.285 102.746 205.088 105.263C207.907 106.918 209.413 110.533 208.603 113.7C224.732 123.922 235.964 141.535 238.43 160.471C240.896 179.408 234.55 199.309 221.577 213.322C208.604 227.335 189.25 235.194 170.18 234.192C165.71 233.958 160.896 233.339 157.045 235.619C152.593 238.255 150.993 243.81 149.769 248.837Z" fill="white"/>
<path d="M143.242 131.379C142.88 131.384 142.723 131.833 142.664 132.191C142.443 133.554 142.222 134.917 142.001 136.279C143.704 136.244 145.624 136.113 146.733 134.818C145.206 134.561 144.066 132.912 144.363 131.393C144.906 132.232 145.64 132.946 146.493 133.466C146.917 133.725 147.408 133.978 147.574 134.447C147.848 135.222 147.077 135.939 146.403 136.411C145.73 136.883 144.976 137.636 145.294 138.394C144.672 137.676 143.76 137.216 142.812 137.142C142.269 137.099 141.669 137.163 141.235 136.834C140.536 136.305 140.775 135.204 141.161 134.416C141.548 133.629 142.018 132.695 141.585 131.933C141.26 131.362 140.5 131.081 140.329 130.447C140.08 129.523 141.224 128.878 142.152 128.641C142.797 128.477 143.476 128.331 144.123 128.491C144.769 128.651 145.365 129.212 145.341 129.878C145.033 130.74 144.157 131.366 143.242 131.379V131.379ZM144.755 129.614C143.829 129.09 142.594 129.174 141.747 129.818C141.469 130.029 141.215 130.399 141.384 130.705C142.591 130.782 143.822 130.384 144.755 129.614Z" fill="black"/>
<path d="M210.171 180.028C209.763 179.867 209.402 179.592 209.137 179.242C210.121 178.813 210.928 177.992 211.341 177.001C211.604 176.371 212.545 176.36 213.111 176.742C213.677 177.125 214.03 177.75 214.545 178.199C215.059 178.648 215.917 178.873 216.388 178.379C216.938 177.803 218.006 178.268 218.286 179.013C218.566 179.759 218.32 180.588 218.073 181.345C217.93 181.785 217.774 182.246 217.432 182.557C217.089 182.868 216.498 182.957 216.182 182.62C214.94 181.295 212.46 181.51 211.464 183.029C210.468 182.429 209.923 181.164 210.171 180.028ZM211.968 177.985C211.079 178.883 210.777 180.316 211.228 181.497C211.332 181.769 211.681 182.058 211.861 181.829C212.687 180.778 214.193 180.318 215.466 180.728C215.707 180.806 215.921 180.487 215.852 180.244C215.783 180 215.556 179.842 215.344 179.704C214.434 179.113 213.525 178.522 212.616 177.932C212.51 177.863 212.393 177.791 212.268 177.804C212.149 177.815 212.052 177.9 211.968 177.985V177.985ZM216.864 182.27C217.235 181.417 217.487 180.513 217.609 179.591C217.636 179.387 217.536 179.081 217.346 179.159C216.221 179.68 215.949 181.433 216.864 182.27V182.27Z" fill="black"/>
<path d="M181.851 180.541C180.162 179.242 178.021 178.201 177.317 176.19C176.119 172.769 172.318 170.982 170.437 167.884C168.849 165.269 168.801 161.994 169.275 158.971C170.464 151.398 175.146 144.033 182.316 141.321C185.738 140.028 189.473 139.847 193.131 139.885C196.279 139.917 199.533 140.128 202.338 141.558C205.142 142.989 207.394 145.933 207.099 149.067C206.98 150.329 206.468 151.539 206.444 152.805C206.38 156.276 209.779 158.669 212.785 160.405C215.685 162.078 218.584 163.752 221.483 165.426C222.979 166.29 223.183 168.328 223.215 170.055C223.301 174.779 223.387 179.503 223.473 184.226C223.49 185.17 223.506 186.129 223.262 187.041C222.999 188.025 222.448 188.904 221.904 189.766C216.485 198.357 210.605 207.371 201.462 211.794C199.461 212.762 197.35 213.482 195.246 214.199C193.279 214.87 191.313 215.54 189.346 216.21C187.893 216.705 186.396 217.207 184.863 217.12C183.331 217.033 181.736 216.214 181.198 214.776C180.885 213.942 180.96 213.016 181.091 212.135C181.536 209.134 182.58 206.223 184.146 203.624C186.33 199.997 187.643 195.768 187.389 191.543C187.135 187.317 185.207 183.122 181.851 180.541ZM175.12 170.527C179.191 174.314 182.808 178.588 185.87 183.229C186.925 184.827 187.923 186.491 188.486 188.321C189.576 191.871 188.928 195.743 187.668 199.236C186.408 202.729 184.56 205.98 183.161 209.42C182.386 211.325 181.906 213.874 183.533 215.132C184.871 216.167 186.792 215.63 188.381 215.049C190.765 214.178 193.148 213.307 195.531 212.436C197.509 211.713 199.492 210.988 201.37 210.035C209.951 205.68 215.446 197.12 220.527 188.948C220.987 188.208 221.453 187.456 221.692 186.618C221.94 185.747 221.932 184.826 221.921 183.92C221.874 179.924 221.827 175.928 221.779 171.932C221.763 170.527 221.733 169.064 221.097 167.81C219.963 165.573 217.318 164.67 215.043 163.616C211.63 162.034 208.576 159.682 206.175 156.785C205.556 156.038 204.964 155.221 204.774 154.27C204.435 152.58 205.424 150.919 205.571 149.201C205.811 146.388 203.689 143.798 201.129 142.607C198.569 141.417 195.652 141.33 192.829 141.307C190.152 141.286 187.442 141.308 184.852 141.984C177.14 143.997 171.863 151.686 170.731 159.575C170.41 161.813 170.386 164.194 171.386 166.222C172.232 167.936 173.72 169.226 175.12 170.527Z" fill="black"/>
<path d="M137.992 289.818C141 291.647 144.574 292.254 148.059 292.752C153.603 293.546 159.173 294.154 164.757 294.578C171.95 295.123 179.608 295.258 185.865 291.667C186.327 291.402 186.799 291.097 187.052 290.627C187.819 289.202 186.067 287.658 184.473 287.373C182.879 287.088 181.037 287.252 179.872 286.127C182.218 284.962 185.17 285.122 187.377 286.534C189.583 287.947 190.963 290.561 190.887 293.18C190.824 295.326 189.859 297.393 189.959 299.538C190.081 302.155 187.413 303.971 184.978 304.938C177.239 308.011 168.678 308.09 160.352 307.968C152.975 307.86 145.313 307.556 138.757 304.171C137.109 303.32 135.498 302.223 134.586 300.607C133.768 299.156 133.597 297.442 133.443 295.783C133.132 292.448 132.937 288.719 135.085 286.149C137.133 283.699 140.632 283.142 143.817 282.912C145.356 282.801 145.897 280.759 145.616 279.242C145.335 277.726 144.665 276.111 145.325 274.717C146.643 271.934 151.221 273.302 153.573 271.316C154.354 270.657 155.609 271.83 155.306 272.806C155.002 273.782 153.856 274.238 152.834 274.258C151.812 274.277 150.795 273.996 149.777 274.089C148.759 274.182 147.661 274.832 147.575 275.851C156.955 279.615 167.547 280.287 177.328 277.74C175.644 275.679 172.948 274.488 170.291 274.632C170.334 273.977 171.067 273.606 171.713 273.486C174.641 272.945 177.656 274.993 178.777 277.752C179.899 280.51 179.373 283.735 177.975 286.364C176.703 285.968 176.804 284.171 177.009 282.855C177.215 281.54 176.674 279.64 175.366 279.893C166.432 281.624 157.044 280.952 148.447 277.966C147.791 277.738 147.374 278.66 147.294 279.35C146.994 281.93 146.841 284.934 148.748 286.697C149.684 287.562 150.957 287.948 152.193 288.26C158.911 289.956 165.976 290.262 172.816 289.154C173.773 288.998 174.993 288.933 175.46 289.783C170.278 292.132 164.306 291.598 158.646 291.016C155.971 290.742 153.243 290.453 150.789 289.351C148.397 288.276 146.373 286.472 143.927 285.525C141.482 284.578 138.205 284.825 136.872 287.083C136.724 287.332 136.604 287.604 136.584 287.893C136.523 288.729 137.276 289.382 137.992 289.818ZM188.35 300.143C189.439 297.708 188.436 294.914 188.114 292.265C180.683 297.341 170.91 296.902 161.96 295.964C156.771 295.419 151.593 294.773 146.43 294.025C143.081 293.54 139.564 292.937 136.946 290.793C136.244 290.217 135.462 291.424 135.346 292.324C135.008 294.944 134.714 297.794 136.075 300.058C137.567 302.54 140.596 303.573 143.408 304.267C155.785 307.318 168.884 307.396 181.296 304.491C184.087 303.838 187.179 302.761 188.35 300.143V300.143Z" fill="black"/>
<path d="M203.644 84.0922C205.107 83.7734 206.604 84.3377 207.981 84.9245C234.34 96.1553 254.906 120.147 261.977 147.912C269.048 175.677 262.461 206.584 244.685 229.054C226.909 251.524 198.348 265.046 169.7 264.554C169.118 267.881 168.536 271.209 167.953 274.536C167.953 271.716 167.907 268.732 166.428 266.331C164.949 263.93 161.482 262.524 159.216 264.202C156.12 267.9 158.513 274.6 163.25 275.5C162.324 277.673 158.75 276.996 157.549 274.961C156.348 272.927 156.621 270.394 156.435 268.038C156.25 265.683 155.163 262.974 152.846 262.512C145.968 261.14 139.222 259.108 132.73 256.453C128.529 254.735 123.686 251.359 124.671 246.928C125.398 243.655 129.271 241.902 132.594 242.343C135.918 242.783 138.785 244.81 141.502 246.775C142.919 241.879 144.336 236.982 145.753 232.085C141.293 232.292 140.041 225.758 136.283 223.347C119.09 212.317 107.629 192.821 106.353 172.434C105.077 152.047 114.017 131.273 129.7 118.185C145.383 105.097 167.421 100.018 187.25 104.921C189.603 102.027 194.001 101.025 197.376 102.614C200.531 101.004 200.369 96.5384 199.973 93.0186C199.577 89.4988 200.183 84.8466 203.644 84.0922V84.0922ZM231.283 190.742C239.013 170.429 235.378 146.199 222.029 129.048C221.062 127.806 219.97 126.543 218.476 126.044C215.103 124.916 211.729 123.789 208.356 122.661C208.722 124.084 207.584 125.544 206.21 126.065C204.836 126.585 203.309 126.408 201.852 126.223C199.256 125.892 196.576 125.528 194.334 124.178C192.093 122.828 190.393 120.214 190.936 117.655C191.37 115.609 188.863 114.298 186.849 113.737C181.592 112.271 176.334 110.806 171.076 109.34C169.93 109.021 168.704 108.65 167.972 107.712C167.24 106.774 167.384 105.092 168.511 104.711C159.7 104.946 150.95 107.209 143.13 111.275C149.364 114.506 155.717 117.825 160.598 122.873C164.426 126.833 167.304 132.141 166.839 137.629C166.437 142.384 163.538 146.684 159.761 149.601C155.984 152.518 151.394 154.195 146.765 155.358C139.937 157.075 131.665 157.345 126.967 152.101C125.6 150.575 123.158 150.971 121.177 151.492C117.834 152.37 114.492 153.249 111.15 154.128C110.371 154.333 109.429 154.73 109.403 155.534C109.322 157.974 111.13 160.344 113.503 160.913C115.877 161.481 118.562 160.186 119.595 157.975C120.218 156.643 122.094 156.435 123.469 156.957C124.843 157.478 125.981 158.501 127.349 159.041C129.516 159.897 132.06 159.468 134.157 160.485C137.653 162.182 138.249 166.945 137.582 170.774C136.344 177.88 132.314 184.463 126.548 188.797C122.764 191.642 123.421 197.537 125.325 201.871C127.23 206.205 130.061 210.563 129.4 215.25C126.803 209.821 124.605 204.201 122.827 198.451C121.846 195.279 121.285 191.162 123.989 189.235C129.734 185.142 133.997 179.013 135.836 172.203C136.937 168.12 136.39 162.546 132.343 161.319C130.775 160.843 129.04 161.197 127.483 160.687C126.179 160.26 125.134 159.272 123.881 158.711C122.629 158.15 120.866 158.198 120.205 159.401C117.953 163.499 111.042 163.666 108.594 159.682C105.751 179.979 113.439 201.464 128.513 215.35C143.587 229.235 165.63 235.137 185.626 230.641C205.621 226.145 223.016 211.376 230.695 192.374C228.561 191.423 227.353 189.065 227.041 186.75C226.729 184.434 227.145 182.093 227.376 179.768C227.84 175.093 227.549 170.343 226.517 165.759C226.239 164.527 225.695 163.092 224.457 162.836C220.744 162.07 217.219 160.4 214.273 158.013C212.035 156.199 210.157 152.604 212.334 150.718C213.349 149.84 211.909 148.393 211.385 147.158C210.277 144.549 213.668 142.407 216.378 141.581C219.556 140.611 222.733 139.642 225.911 138.672C226.254 138.568 226.617 138.462 226.966 138.547C227.979 138.794 227.907 140.43 227.055 141.031C226.203 141.631 225.065 141.534 224.023 141.509C219.877 141.411 215.713 142.928 212.603 145.671C213.986 147.201 214.342 149.578 213.468 151.447C212.415 153.696 213.91 156.426 215.975 157.805C218.041 159.183 220.562 159.654 222.88 160.544C225.199 161.435 227.536 163.017 228.097 165.436C229.234 170.338 229.481 175.445 228.824 180.433C228.327 184.199 227.862 189.092 231.283 190.742V190.742ZM148.001 248.337C146.703 246.899 147.023 244.618 147.833 242.857C148.643 241.096 149.866 239.484 150.209 237.577C150.551 235.669 149.518 233.289 147.585 233.141C146.17 237.804 144.756 242.467 143.341 247.13C169.202 255.866 199.297 250.784 220.856 234.041C242.414 217.298 254.788 189.397 252.725 162.179C250.663 134.96 234.227 109.242 210.392 95.9386C209.823 95.6213 209.186 95.3002 208.55 95.4383C207.733 95.6157 207.269 96.458 206.91 97.2132C205.713 99.7298 204.517 102.246 203.321 104.763C206.139 106.418 207.645 110.033 206.835 113.2C222.965 123.422 234.196 141.035 236.663 159.971C239.129 178.908 232.783 198.809 219.809 212.822C206.836 226.835 187.482 234.694 168.412 233.692C163.943 233.458 159.129 232.839 155.278 235.119C150.825 237.755 149.225 243.31 148.001 248.337H148.001ZM208.889 87.1301C207.418 86.4743 205.818 85.8441 204.239 86.1574C202.659 86.4706 201.256 88.1443 201.831 89.6482C229.522 100.953 250.193 127.889 253.95 157.562C257.706 187.235 244.399 218.472 220.399 236.321C196.399 254.169 162.653 257.924 135.317 245.788C132.662 244.609 129.037 243.507 127.285 245.824C126.207 247.251 126.568 249.383 127.656 250.803C128.743 252.223 130.39 253.084 132.005 253.854C161.167 267.751 197.699 264.708 224.16 246.178C250.621 227.649 265.973 194.359 262.885 162.203C259.798 130.047 238.392 100.286 208.889 87.1301V87.1301ZM110.555 152.839C113.957 151.91 117.36 150.981 120.763 150.052C123.109 149.411 126.016 148.92 127.636 150.734C130.254 153.664 134.307 155.004 138.235 155.078C142.163 155.153 146.02 154.095 149.756 152.881C154.849 151.227 160.274 148.893 162.712 144.125C164.144 141.323 165.616 138.346 165.421 135.205C165.242 132.31 163.671 129.711 162.144 127.245C160.86 125.173 159.544 123.062 157.669 121.504C154.47 118.847 149.951 118.055 147.028 115.097C145.338 113.387 142.654 112.97 140.309 113.502C137.965 114.034 135.893 115.379 133.958 116.806C122.868 124.989 114.509 136.81 110.49 149.994C110.203 150.938 109.963 152.05 110.555 152.839ZM207.139 122.079C208.225 120.518 210.678 121.062 212.296 122.061C213.914 123.061 215.657 124.414 217.499 123.942C207.437 113.736 193.958 106.959 179.765 104.969C176.091 104.454 171.878 104.422 169.237 107.027C175.846 109.01 182.455 110.992 189.064 112.974C189.934 113.235 190.852 113.526 191.447 114.211C192.494 115.416 192.12 117.246 192.411 118.815C192.83 121.077 194.73 122.837 196.853 123.722C198.977 124.606 201.321 124.764 203.617 124.91C204.415 124.961 205.304 124.983 205.907 124.457C206.586 123.865 206.625 122.818 207.139 122.079ZM205.132 112.062C205.75 110.712 205.194 109.054 204.168 107.98C203.142 106.906 201.735 106.295 200.357 105.742C197.94 104.773 195.433 103.888 192.83 103.818C192.177 103.801 191.459 103.861 190.991 104.316C190.523 104.77 190.566 105.738 191.191 105.927C196.063 107.4 200.755 109.465 205.132 112.062ZM157.643 232.144C152.906 231.261 148.295 229.703 143.992 227.532C143.636 227.352 143.257 227.163 142.861 227.201C142.464 227.238 142.072 227.61 142.172 227.995C142.24 228.257 142.494 228.419 142.726 228.556C145.2 230.01 147.694 231.474 150.408 232.406C153.122 233.337 156.104 233.71 158.868 232.94C158.775 232.429 158.154 232.239 157.643 232.144V232.144ZM205.478 93.2339C205.107 92.6892 204.235 92.7286 203.719 93.14C203.204 93.5513 202.956 94.2034 202.73 94.8232C201.787 97.4147 200.844 100.006 199.901 102.598C199.814 102.836 199.726 103.084 199.754 103.336C199.835 104.068 200.874 104.333 201.503 103.952C202.133 103.571 202.432 102.831 202.69 102.142C203.596 99.725 204.503 97.3081 205.409 94.8911C205.611 94.3517 205.803 93.7096 205.478 93.2339V93.2339Z" fill="black"/>
</g>
<defs>
<clipPath id="clip0_188_884">
<rect width="224" height="224" fill="white" transform="translate(73.5 84)"/>
</clipPath>
</defs>
</svg>
