<svg width="200" height="200" viewBox="0 0 200 200" fill="none" xmlns="http://www.w3.org/2000/svg">
<path d="M60.8499 25.8501C60.7944 25.8664 60.7476 25.9039 60.7195 25.9544C60.6915 26.0049 60.6844 26.0645 60.6999 26.1201C60.6999 26.3201 60.7899 26.2601 62.0199 26.3301C63.0799 26.3901 64.0199 26.4401 64.4799 26.4401H64.7599C64.8007 26.4293 64.8378 26.4078 64.8677 26.378C64.8975 26.3481 64.919 26.3109 64.9299 26.2701C64.9407 26.2299 64.9409 26.1875 64.9303 26.1472C64.9198 26.1069 64.899 26.07 64.8699 26.0401C64.5599 25.7301 60.8799 25.8401 60.8499 25.8501ZM59.4699 19.8901C59.3948 21.0723 59.3948 22.258 59.4699 23.4401C59.4699 23.5601 59.3999 24.0001 59.7199 24.0001C59.7845 24.0002 59.8466 23.9752 59.8932 23.9305C59.9398 23.8858 59.9673 23.8247 59.9699 23.7601C60.0494 22.4714 60.0494 21.1789 59.9699 19.8901C59.9699 19.8238 59.9435 19.7603 59.8966 19.7134C59.8498 19.6665 59.7862 19.6401 59.7199 19.6401C59.6536 19.6401 59.59 19.6665 59.5431 19.7134C59.4962 19.7603 59.4699 19.8238 59.4699 19.8901ZM54.9999 25.3701C54.9476 25.3946 54.9042 25.4347 54.8755 25.4848C54.8469 25.5349 54.8344 25.5927 54.8399 25.6501C54.8399 26.0401 55.2799 26.0001 55.8899 26.0701C56.4504 26.1208 57.0078 26.201 57.5599 26.3101C57.6125 26.307 57.6628 26.2873 57.7036 26.2538C57.7444 26.2203 57.7735 26.1747 57.7868 26.1237C57.8001 26.0726 57.797 26.0187 57.7778 25.9696C57.7585 25.9204 57.7243 25.8786 57.6799 25.8501C56.8212 25.5359 55.9143 25.3734 54.9999 25.3701ZM58.9999 27.4701C58.4399 30.0501 58.3499 30.5201 58.7399 30.5201C59.1299 30.5201 59.0899 30.3601 59.5399 27.6101C59.5399 27.2601 58.9999 27.1201 58.9999 27.4701ZM67.3899 9.86015C66.3199 11.5701 67.7299 14.3001 69.8599 13.8601C70.4657 13.7834 71.0252 13.4958 71.4403 13.0478C71.8554 12.5999 72.0995 12.0201 72.1299 11.4101C72.3599 9.00015 68.7699 7.66015 67.3899 9.86015ZM67.9999 12.4501C67.8055 12.1594 67.6793 11.8285 67.6308 11.4822C67.5823 11.1359 67.6128 10.7831 67.7199 10.4501C68.3599 8.45015 71.3199 8.98015 71.6299 10.9101C71.8399 12.0801 69.3499 14.5301 67.9999 12.4501ZM18.8599 35.8301C18.804 35.832 18.7498 35.8501 18.7039 35.8821C18.658 35.914 18.6224 35.9586 18.6012 36.0104C18.5801 36.0622 18.5744 36.119 18.5848 36.1739C18.5952 36.2289 18.6213 36.2797 18.6599 36.3201C19.1799 36.8801 21.0099 40.1601 22.0599 41.1301C22.5399 40.7401 25.5099 35.8501 25.3299 35.5801C23.1876 35.8863 21.0194 35.9701 18.8599 35.8301ZM24.6999 36.0001C23.9973 37.5792 23.0895 39.0586 21.9999 40.4001L19.4599 36.4001C21.216 36.4614 22.9734 36.3272 24.6999 36.0001ZM10.6799 123.25C10.7464 123.25 10.8106 123.225 10.8599 123.18C10.8883 123.153 10.911 123.12 10.9264 123.084C10.9419 123.048 10.9499 123.009 10.9499 122.97C10.9499 122.931 10.9419 122.892 10.9264 122.856C10.911 122.82 10.8883 122.787 10.8599 122.76C10.1814 122.205 9.40928 121.775 8.57987 121.49C8.49981 121.496 8.42485 121.532 8.36987 121.59C8.34107 121.633 8.32568 121.683 8.32568 121.735C8.32568 121.787 8.34107 121.837 8.36987 121.88C8.36987 121.94 8.47987 121.99 9.11987 122.33C9.61319 122.559 10.0822 122.837 10.5199 123.16C10.5599 123.209 10.6171 123.242 10.6799 123.25ZM10.9999 125.59C10.2703 126.597 9.68462 127.701 9.25987 128.87C9.25454 128.921 9.26641 128.972 9.29359 129.016C9.32076 129.059 9.36169 129.093 9.40987 129.11H9.49987C9.53576 129.109 9.57092 129.1 9.60229 129.082C9.63367 129.065 9.6603 129.04 9.67987 129.01L10.1399 128.16C10.5799 127.36 11.1399 126.26 11.4299 125.95C11.4819 125.895 11.5108 125.821 11.5108 125.745C11.5108 125.669 11.4819 125.596 11.4299 125.54C11.4088 125.498 11.3752 125.463 11.3335 125.44C11.2919 125.418 11.2443 125.408 11.1973 125.414C11.1502 125.419 11.106 125.439 11.0707 125.471C11.0354 125.502 11.0106 125.544 10.9999 125.59ZM15.3499 119.21C15.3929 119.164 15.4207 119.106 15.4297 119.043C15.4386 118.98 15.4282 118.917 15.3999 118.86C15.3607 118.799 15.3005 118.754 15.2306 118.734C15.1607 118.713 15.0858 118.719 15.0199 118.75C14.3313 119.492 13.7885 120.357 13.4199 121.3C13.4157 121.332 13.4182 121.365 13.4271 121.397C13.436 121.428 13.4513 121.457 13.4718 121.482C13.4924 121.508 13.5179 121.528 13.5468 121.544C13.5757 121.559 13.6074 121.568 13.6399 121.57C13.7 121.574 13.7595 121.555 13.8073 121.519C13.855 121.482 13.8879 121.429 13.8999 121.37C14.2151 120.726 14.6008 120.119 15.0499 119.56C15.2699 119.33 15.3299 119.25 15.3499 119.21ZM15.1099 124.32C15.0777 124.312 15.0442 124.309 15.0112 124.314C14.9782 124.318 14.9464 124.329 14.9176 124.346C14.8888 124.363 14.8636 124.385 14.8434 124.411C14.8232 124.438 14.8084 124.468 14.7999 124.5C14.7913 124.532 14.7892 124.566 14.7936 124.599C14.7981 124.632 14.809 124.664 14.8257 124.692C14.8424 124.721 14.8646 124.746 14.8911 124.767C14.9175 124.787 14.9477 124.802 14.9799 124.81C15.1899 124.87 18.2099 125.74 18.4399 125.74C18.4849 125.735 18.5276 125.717 18.563 125.689C18.5984 125.661 18.625 125.623 18.6399 125.58C18.6526 125.534 18.6507 125.486 18.6346 125.441C18.6185 125.396 18.5889 125.357 18.5499 125.33C18.3999 125.22 15.1499 124.33 15.1099 124.32ZM183.36 69.5801C183.331 69.5441 183.295 69.5154 183.253 69.4963C183.211 69.4771 183.166 69.4682 183.12 69.4701C183.08 69.4701 183.041 69.4813 183.007 69.5026C182.974 69.5238 182.947 69.5542 182.93 69.5901C181.93 71.1701 179.81 74.7901 179.59 75.1701C179.539 75.2042 179.501 75.2539 179.481 75.3116C179.461 75.3694 179.461 75.4321 179.48 75.4901C179.491 75.5421 179.521 75.5885 179.563 75.6213C179.605 75.6542 179.657 75.6714 179.71 75.6701C187.34 74.9601 187.09 75.0401 187.18 74.8201C187.27 74.6001 187.39 75.0801 183.36 69.5801ZM186.44 74.5101L180.21 75.0801C181.01 73.7901 182.38 71.5001 182.98 70.4901C183.06 70.3601 183.12 70.2501 183.17 70.1801C184.83 72.4301 185.93 73.8901 186.44 74.5101ZM189.93 58.7201C189.446 58.348 188.859 58.136 188.249 58.114C187.639 58.0919 187.037 58.2608 186.528 58.597C186.019 58.9333 185.628 59.4201 185.408 59.9896C185.189 60.5591 185.153 61.1828 185.306 61.7737C185.458 62.3646 185.791 62.8931 186.258 63.2856C186.726 63.6781 187.304 63.9149 187.912 63.9629C188.52 64.011 189.128 63.8679 189.652 63.5537C190.175 63.2395 190.587 62.7698 190.83 62.2101C191.036 61.6039 191.06 60.9509 190.9 60.3309C190.74 59.711 190.403 59.1512 189.93 58.7201ZM186.17 62.4501C185.845 62.0079 185.679 61.4691 185.699 60.9209C185.718 60.3727 185.921 59.847 186.276 59.4286C186.631 59.0102 187.116 58.7236 187.654 58.615C188.192 58.5064 188.751 58.5822 189.24 58.8301C189.76 59.1697 190.159 59.6651 190.38 60.2453C190.601 60.8256 190.632 61.4609 190.47 62.0601C190.282 62.4533 189.996 62.791 189.638 63.0399C189.281 63.2887 188.865 63.4403 188.431 63.4797C187.997 63.519 187.561 63.4448 187.164 63.2643C186.768 63.0838 186.425 62.8032 186.17 62.4501ZM153.18 73.8801C151.65 75.4701 153.28 79.0001 155.85 78.2801C156.361 78.1243 156.812 77.8161 157.142 77.3969C157.473 76.9776 157.668 76.4673 157.701 75.9343C157.733 75.4012 157.602 74.871 157.325 74.4145C157.048 73.958 156.638 73.5971 156.15 73.3801C155.662 73.1549 155.118 73.0822 154.588 73.1714C154.058 73.2606 153.567 73.5076 153.18 73.8801ZM157.31 75.5701C157.344 76.0263 157.244 76.4826 157.022 76.8824C156.8 77.2823 156.465 77.6083 156.06 77.8201C153.78 78.9801 152.23 75.8201 153.19 74.3501C153.46 73.9576 153.848 73.6607 154.298 73.5018C154.747 73.3429 155.235 73.3303 155.692 73.4656C156.15 73.601 156.552 73.8774 156.843 74.2554C157.133 74.6334 157.297 75.0936 157.31 75.5701ZM151.06 70.2301C151.01 70.3101 151.06 70.4301 151.17 70.4001C155.67 68.9801 155.5 69.0601 155.49 68.9201C154.69 59.7001 149.64 52.1501 149.42 52.2301C145.6 53.4801 145.55 53.3601 145.64 53.5501C148.158 58.8534 149.979 64.4599 151.06 70.2301ZM149.53 52.7801C154.26 60.7801 154.79 67.0201 154.92 68.5001C153.64 68.9101 152.73 69.2001 151.47 69.6701C150.375 64.1641 148.562 58.8253 146.08 53.7901C149.64 52.5601 149.42 52.5901 149.53 52.7801ZM103.87 79.1001C108.73 79.5101 129.81 79.9601 131.87 79.9801C135.41 79.9801 139.06 78.9801 139.61 75.4501C139.83 74.0101 140.61 63.2701 140.48 61.4501C140.05 55.0301 137.67 50.5101 126.48 49.0201C119.93 48.1501 102.65 47.6701 97.2899 51.4801C94.5299 53.4801 94.8499 57.5401 94.7699 60.5901C94.7218 64.1833 94.9256 67.7755 95.3799 71.3401C95.9999 76.7601 97.5899 78.5701 103.87 79.1001ZM123.51 68.7701C123.499 68.8008 123.478 68.8272 123.451 68.8458C123.424 68.8645 123.393 68.8745 123.36 68.8745C123.327 68.8745 123.295 68.8645 123.269 68.8458C123.242 68.8272 123.221 68.8008 123.21 68.7701C123.185 67.2032 123.265 65.6363 123.45 64.0801C123.45 63.9601 123.69 63.9401 123.72 64.0801C123.756 65.6464 123.685 67.2133 123.51 68.7701ZM122 57.9001C122.74 57.9501 126 58.2401 126.39 58.3701C126.53 58.4201 126.58 58.6801 126.39 58.7101C126.01 58.7101 122.7 58.3301 121.96 58.2201C121.74 58.1901 121.79 57.8901 122 57.9001ZM106.54 70.5301C106.551 70.4995 106.572 70.4731 106.599 70.4545C106.625 70.4358 106.657 70.4258 106.69 70.4258C106.723 70.4258 106.754 70.4358 106.781 70.4545C106.808 70.4731 106.829 70.4995 106.84 70.5301C106.949 71.5263 106.976 72.5296 106.92 73.5301C111.13 73.5301 115.31 74.3001 119.52 74.2401C119.58 73.5601 119.64 72.9001 119.74 72.2401C119.74 72.0201 120.13 72.0801 120.12 72.2401C120.12 72.9701 120.01 73.6901 119.93 74.4101C119.93 74.4658 119.908 74.5193 119.868 74.5586C119.829 74.598 119.776 74.6201 119.72 74.6201C117.54 74.6201 108.88 73.9001 106.72 73.9401C106.662 73.9377 106.608 73.9137 106.567 73.873C106.526 73.8322 106.502 73.7777 106.5 73.7201C106.433 72.6573 106.447 71.591 106.54 70.5301ZM102.54 67.1501C102.529 67.1761 102.512 67.1984 102.488 67.2141C102.465 67.2298 102.438 67.2382 102.41 67.2382C102.382 67.2382 102.355 67.2298 102.331 67.2141C102.308 67.1984 102.29 67.1761 102.28 67.1501C102.058 65.6777 102.004 64.1847 102.12 62.7001C102.12 62.5601 102.37 62.6001 102.38 62.7001C102.37 63.5001 102.64 66.8101 102.53 67.1501H102.54ZM105.54 56.4601C105.57 56.4736 105.595 56.4954 105.613 56.5229C105.631 56.5504 105.64 56.5824 105.64 56.6151C105.64 56.6479 105.631 56.6799 105.613 56.7074C105.595 56.7349 105.57 56.7567 105.54 56.7701C103.946 57.2623 102.323 57.6531 100.68 57.9401C99.7199 57.5701 105.31 56.4201 105.52 56.4601H105.54ZM172.49 183.33C172.49 183.41 172.7 183.49 172.72 183.41C173.359 181.329 174.45 179.415 175.914 177.804C177.378 176.193 179.18 174.925 181.19 174.09C182.319 173.657 183.483 173.322 184.67 173.09C186.61 172.74 175 172.71 172.49 183.33ZM169.25 179.06C169.938 176.538 171.528 174.356 173.717 172.928C175.907 171.5 178.544 170.924 181.13 171.31C181.22 171.31 181.24 171.16 181.13 171.14C177.23 170.27 170.59 171.59 169.04 178.99C169 179.06 169.23 179.13 169.25 179.06Z" fill="black"/>
<path d="M192 179.06C192.89 178.86 193.78 178.69 194.68 178.56C194.96 178.56 194.82 178.32 192.06 175.02C193.59 174.6 193.84 174.65 193.67 174.46C187.08 167.52 174.3 158.84 173.96 158.86C166.28 159.2 157.22 163.55 155.7 171.13C153.384 169.822 150.85 168.944 148.22 168.54C149.638 163.951 149.596 159.035 148.1 154.47C157.58 146.47 159 138.29 159.16 137.98C176.16 133.33 179.21 125.65 176.54 113.98C174.618 105.698 170.367 98.1373 164.29 92.1902C164.22 85.6002 165.09 72.5902 160.59 59.0302C152.08 33.3502 132.28 29.5602 131.74 29.4702C131.204 29.3954 130.662 29.3653 130.12 29.3802C141.5 12.5802 120.03 8.18018 113.97 15.1102C110.51 19.1102 112.8 24.8102 115.48 29.5802C112.27 30.0602 102.48 32.1802 94.9303 42.7002C87.0003 53.8002 86.0503 69.1102 86.6603 84.1402C82.3503 81.0602 81.8603 80.7802 81.9303 81.1402C82.1203 81.9702 82.8403 85.2402 83.0703 86.0202L79.3103 83.6702C79.2203 83.6102 79.1303 83.6702 79.1403 83.8002C79.4703 85.5002 79.8503 87.1802 80.2103 88.8702C78.7138 88.2976 77.1884 87.8036 75.6403 87.3902C76.8003 89.8402 82.0803 100.71 85.9703 108.7C78.4103 108.29 76.9003 98.7002 72.5503 93.8302C71.0315 92.1053 69.0326 90.8728 66.8094 90.2903C64.5862 89.7078 62.2398 89.8017 60.0703 90.5602C58.3803 87.8502 55.4003 88.7402 55.2003 90.5602C53.5403 88.1102 51.2003 87.2702 48.2703 87.0802C45.6447 83.1988 43.2635 79.1576 41.1403 74.9802C41.1285 74.9594 41.1108 74.9425 41.0895 74.9318C41.0681 74.9212 41.044 74.9171 41.0203 74.9202C36.4903 75.7602 23.4703 78.1102 23.4903 78.1402C23.9903 79.2502 24.3303 80.0702 23.6603 81.1402C22.7903 82.5302 21.4903 81.1402 21.3603 80.8902C18.6603 76.5202 36.4703 109.19 36.5703 109.18C42.5703 109.02 56.0503 106.89 56.6303 106.75C57.0096 106.683 57.3657 106.521 57.6656 106.28C57.9654 106.038 58.1991 105.724 58.3449 105.368C58.4907 105.011 58.5438 104.624 58.4993 104.241C58.4547 103.859 58.314 103.494 58.0903 103.18L55.3603 98.6702C55.5241 98.3992 55.6646 98.1149 55.7803 97.8202C56.3403 99.5202 59.3203 100.25 60.7103 97.6102C63.7103 97.6102 66.0203 99.9502 67.3203 102.52C70.0103 107.87 72.5503 124.46 87.9403 123.23C89.2395 123.167 90.5212 122.904 91.7403 122.45C93.0703 131 96.4803 147.03 103.96 151.45C102.7 154.55 102.57 159.06 102.96 162.38C105.33 185.18 128.27 187.54 138.86 180.38C145.79 185.11 148.58 190.03 148.98 189.88C149.76 189.56 150.52 189.2 151.31 188.88C159.96 185.48 166.31 186.96 168.84 187.76C169.988 188.18 171.104 188.681 172.18 189.26C172.189 189.712 172.341 190.149 172.614 190.508C172.887 190.868 173.268 191.131 173.7 191.26C175.7 191.81 177.03 189.58 176.36 188.45C179.43 186.45 186.79 184.45 194.93 185.05C195.32 185 195 184.77 192 179.06ZM194.38 178.33C187.67 179.24 177.17 182.99 174.38 189.13C176.38 182.13 184.79 177.13 191.8 175.13C191.8 175.11 193.54 177.26 194.41 178.33H194.38ZM168.65 160.11C170.4 159.65 171.9 159.48 173.65 159.11C185.81 167.74 184.85 166.93 193.17 174.34C189.707 175.109 186.4 176.462 183.39 178.34C178.68 181.14 175.15 184.18 173.92 189.49C169.09 181.92 161.58 176.14 156.04 171.42C157.64 165.89 161.23 162.06 168.68 160.11H168.65ZM157.65 137.83C151.24 137.07 145.31 128.01 148.56 125.83C150.436 125.436 152.271 124.867 154.04 124.13C153.28 128.05 160.17 136.19 164.66 135.54C162.384 136.459 160.049 137.224 157.67 137.83H157.65ZM119.65 128.83C118.28 129.57 116.43 128.14 118.11 125.08C119.6 122.36 124.04 119.24 124.78 122.84C124.623 122.778 124.458 122.738 124.29 122.72C123.968 122.823 123.659 122.964 123.37 123.14C118.56 125.59 119.92 128.67 119.71 128.79L119.65 128.83ZM117.41 121.43C115.23 121.74 114.53 122.77 112.41 122.07C111.442 121.74 110.595 121.127 109.98 120.31C107.71 117.88 107.72 114.54 107.4 112.25C109.535 112.297 111.672 112.234 113.8 112.06C113.619 114.022 114.008 115.994 114.92 117.74C116.25 120.04 120.13 121.81 121.57 120.46C121.579 120.725 121.636 120.986 121.74 121.23C121.201 121.486 120.683 121.783 120.19 122.12C118.794 123.211 117.75 124.689 117.19 126.37C116.178 125.145 115.255 123.849 114.43 122.49C114.64 122.49 116.92 121.73 117.43 121.57C117.454 121.575 117.479 121.571 117.5 121.558C117.52 121.545 117.535 121.524 117.54 121.5C117.546 121.476 117.541 121.451 117.528 121.431C117.515 121.41 117.494 121.395 117.47 121.39L117.41 121.43ZM131.35 87.2802C131.35 87.9902 131.47 88.5002 131.45 89.2102C128.23 90.1502 104.91 97.5002 104.17 97.7602C112.833 93.2562 121.969 89.7279 131.41 87.2402L131.35 87.2802ZM104.46 97.2002C111.529 91.4955 119.649 87.2349 128.36 84.6602C128.36 85.6602 128.57 86.5102 128.59 87.5302C120.293 90.0091 112.237 93.2322 104.52 97.1602L104.46 97.2002ZM109.46 111.96C109.46 111.86 105.51 98.2202 105.33 97.8402L134 90.5102C134.12 93.9802 134.78 115.23 134.83 117.22C134.73 117.22 121.49 120.22 121.48 120.32C121.017 120.534 120.51 120.637 120 120.62C118.409 120.4 116.935 119.658 115.81 118.51C115.083 117.577 114.558 116.504 114.267 115.357C113.976 114.211 113.926 113.017 114.12 111.85C114.17 111.66 114.31 111.79 109.49 111.92L109.46 111.96ZM107.08 97.1502C107.74 96.9202 132.93 89.2602 133.62 89.0702C133.62 89.4902 133.77 89.7302 133.75 90.1502C125.65 92.3802 107.46 97.0502 107.11 97.1102L107.08 97.1502ZM104.52 98.0102C104.27 98.2082 103.983 98.3543 103.675 98.44C103.368 98.5256 103.047 98.5491 102.73 98.5091C102.413 98.469 102.108 98.3663 101.832 98.2068C101.555 98.0473 101.313 97.8343 101.12 97.5802C101.14 97.5647 101.155 97.5448 101.166 97.5223C101.176 97.4997 101.181 97.475 101.18 97.4502C101.29 97.5202 102.45 98.1702 102.93 98.4502C103.48 98.3358 104.021 98.1855 104.55 98.0002L104.52 98.0102ZM105.08 97.8902C105.2 98.8902 109.14 111.89 109.17 111.97C108.429 111.912 107.683 111.945 106.95 112.07C107.13 116.21 108.21 120.78 112.07 122.28C112.52 123.64 110.12 124.57 108.98 122.28C108.55 121.38 101.88 100.02 101.17 97.9102C101.418 98.1914 101.723 98.4156 102.066 98.5673C102.408 98.719 102.78 98.7946 103.154 98.7889C103.529 98.7832 103.898 98.6963 104.235 98.5343C104.573 98.3722 104.872 98.1388 105.11 97.8502L105.08 97.8902ZM124.3 122.83C124.3 122.83 128.03 124.38 128.41 124.51C126.86 124.63 122.68 129.63 125.58 133.2C125.1 132.9 120.35 129.86 120.01 129.06C118.94 126.44 122.9 123.44 124.33 122.79L124.3 122.83ZM130.38 125.14C130.978 125.353 131.594 125.51 132.22 125.61C129.3 126.45 127.22 133.25 130.82 135.94C129.053 135.182 127.345 134.293 125.71 133.28C123.85 130.22 126.4 123.33 130.41 125.1L130.38 125.14ZM132.76 125.74C134.317 126.087 135.893 126.337 137.48 126.49C134.17 127.6 133.59 135.33 137.33 138.09C135.32 137.617 133.351 136.985 131.44 136.2C128 133.26 129.4 126 132.79 125.7L132.76 125.74ZM137.7 126.51C139.156 126.65 140.619 126.7 142.08 126.66C139.2 130.3 142.46 136.9 145.66 139.18C143.073 139.108 140.499 138.793 137.97 138.24C134.45 135.9 134.1 127.47 137.73 126.47L137.7 126.51ZM142.3 126.66C144.3 126.594 146.291 126.356 148.25 125.95C145.25 128.34 150.57 137.15 157.2 137.95C153.534 138.831 149.77 139.241 146 139.17C139.23 132.54 141.94 127.21 142.33 126.62L142.3 126.66ZM165.53 135.19C160.48 136.47 154.62 127.71 154.27 126.06C154.157 125.42 154.133 124.767 154.2 124.12C155.937 123.44 157.522 122.42 158.86 121.12C159.38 127.65 170.19 131.86 173.14 130.38C171.21 133.17 165.59 135.14 165.56 135.15L165.53 135.19ZM173.84 129.59C173.486 129.944 173.055 130.211 172.58 130.37C170.14 131.1 160.24 127.37 159.01 120.94C160.165 119.54 160.863 117.819 161.01 116.01C163.34 121.28 174.55 123.14 176.74 118.76C177.15 123.85 175.9 127.12 173.87 129.55L173.84 129.59ZM174.23 108.46C173.23 111.15 167.23 113.75 161.23 111.27C161.05 111.19 161.01 111.43 161.09 111.47C166.72 114.07 173.16 111.94 174.34 108.85C175.474 111.85 176.243 114.976 176.63 118.16C175.58 122.43 164.72 121.52 160.97 115.88C161.19 113.342 160.687 110.794 159.52 108.53C160.03 107.96 164.58 103.08 171.21 102.1C172.384 104.127 173.404 106.24 174.26 108.42L174.23 108.46ZM171.13 101.9C168.854 102.156 166.653 102.867 164.657 103.991C162.66 105.114 160.91 106.627 159.51 108.44C158.816 107.048 157.942 105.754 156.91 104.59C156.98 104.13 157.02 103.67 157.11 103.21C158.11 98.2102 163.2 93.8202 166.32 95.0002C168.138 97.1355 169.758 99.4316 171.16 101.86L171.13 101.9ZM166.02 94.6502C162.02 93.0802 156.8 99.8002 156.8 104.47C155.917 103.502 154.965 102.6 153.95 101.77C151.75 94.1902 157.02 89.8402 159.95 88.8702C162.163 90.5838 164.205 92.5059 166.05 94.6102L166.02 94.6502ZM150.31 99.5002C150.31 99.5602 152.7 101.2 153.73 102.01C152.67 105.01 145.64 105.01 145.96 96.4402C146.37 85.5102 154.8 82.8302 157.42 84.2402C158.002 84.5265 158.459 85.0171 158.702 85.6184C158.946 86.2196 158.959 86.8895 158.74 87.5002C158.6 87.4102 156.81 86.2002 156.02 85.7502C154.264 86.8013 152.786 88.2588 151.71 90.0002C150.823 91.3968 150.241 92.9645 149.999 94.6012C149.758 96.2379 149.864 97.9071 150.31 99.5002ZM150.76 99.3602C150.66 99.3002 148.18 92.1602 156.16 86.0802C157.47 86.9502 158.54 87.7202 159.78 88.6802C154.06 90.5202 151.71 97.3202 153.73 101.52C152.787 100.738 151.795 100.016 150.76 99.3602ZM113 21.8202C110.94 10.0902 134.07 9.63018 132.92 21.9802C132.54 26.0802 129.55 29.3002 127.46 32.6402C125.54 35.7102 124.93 35.9502 123.6 36.2202C124.35 34.1102 126.66 25.5502 127.3 23.3802C127.324 23.3324 127.328 23.2772 127.311 23.2265C127.294 23.1759 127.258 23.1341 127.21 23.1102C127.163 23.0863 127.107 23.0824 127.057 23.0993C127.006 23.1161 126.964 23.1524 126.94 23.2002C126.75 23.8202 126.57 24.4402 126.4 25.0702C125.18 23.3502 126.09 24.3102 124.16 25.7902C122.76 24.5402 122.56 23.8802 122.29 24.2602C121.872 24.8729 121.385 25.4365 120.84 25.9402C119.61 26.1402 119 24.4702 118.93 24.2702C118.86 24.0702 118.57 24.2102 118.61 24.3302C118.65 24.4502 121.77 35.9502 121.92 36.3302C119.2 36.2202 113.69 25.8302 113 21.8202ZM123.22 36.6502C126.22 36.3702 128.02 32.5702 128.4 32.0002C130.25 32.7902 130.1 37.7102 125.23 39.0002C118.51 40.7502 114.47 35.2602 117.76 33.0702C119.87 35.8802 120.16 36.9302 123.21 36.6502H123.22ZM122.27 36.3702C122.27 35.9302 119.9 27.2802 119.36 25.7802C120.79 26.9802 121.42 26.2102 122.5 24.6802C122.86 25.0602 124.04 26.3502 124.25 26.1902C124.828 25.7579 125.317 25.218 125.69 24.6002L126.31 25.4302C125.92 26.8602 123.31 36.2802 123.31 36.2902C122.962 36.3359 122.611 36.3626 122.26 36.3702H122.27ZM95.0003 44.4202C103.7 30.9602 115.82 30.6502 116 30.4902C116.489 31.3323 117.034 32.1408 117.63 32.9102C114.54 34.1802 116.18 41.5702 125.24 39.6402C130.91 38.4302 130.65 32.4002 128.63 31.6402C129.1 30.9402 129.63 30.2502 130.06 29.5602C140.2 31.4402 153.45 41.1102 159.49 57.6202C163.44 68.4202 163.99 80.2002 163.81 91.7302C162.251 90.2223 160.58 88.835 158.81 87.5802C159.66 87.8302 159.57 82.7602 154.69 83.4402C152.048 83.9522 149.71 85.473 148.17 87.6802C146.491 90.0685 145.508 92.8761 145.33 95.7902C144.57 104.9 152.57 105.79 153.95 102.21C160.68 107.63 161.95 114.33 159.82 118.84C156.82 125.21 142.07 129.37 125.06 122.84C125.113 122.607 125.112 122.365 125.056 122.133C125.001 121.901 124.893 121.684 124.74 121.5C124.02 120.5 122.96 120.65 121.86 121.1C121.763 120.866 121.715 120.614 121.72 120.36C124.16 119.98 135.02 117.6 135.19 117.54C135.36 117.48 135.29 117.42 135.29 117.38C135.2 113.83 134.52 92.1102 134.5 90.1302C134.55 90.0102 134.5 89.8202 134.29 89.8802L134.11 89.9402C134.11 87.9402 134.52 88.2302 131.8 89.0202C131.8 86.8402 131.95 86.5202 131.65 86.6002C130.75 86.8302 129.86 87.0702 128.97 87.3302C128.97 86.3302 128.81 85.2602 128.77 84.2202C128.769 84.2024 128.765 84.185 128.756 84.1694C128.748 84.1537 128.736 84.1401 128.721 84.1296C128.707 84.119 128.691 84.1118 128.673 84.1085C128.656 84.1051 128.638 84.1057 128.62 84.1102C119.297 86.706 110.672 91.3564 103.38 97.7202C103.28 97.7802 94.4503 89.8402 87.1803 84.5002C87.6403 70.9102 87.2103 56.5002 95.0003 44.4202ZM82.2503 81.5902C88.1003 85.3702 100.83 96.3102 102 97.3602L83.4403 86.0902C83.3103 85.2502 82.4203 82.3402 82.2503 81.5902ZM79.6103 84.2102C86.0803 88.1302 100.35 96.8802 100.4 96.9202C97.4003 95.4802 81.0603 89.1502 80.7603 89.0402C80.4203 87.3902 80.0003 85.8502 79.6103 84.2102ZM76.1703 87.7702C79.4203 89.0902 100.85 97.6602 100.88 97.6602C102.16 102.03 108.39 122.43 108.99 123.13C108.6 123.01 91.4003 117.28 90.7303 117.13C90.6903 117 76.2303 87.8702 76.1703 87.7702ZM22.0003 81.9102C23.1203 82.3602 24.4203 81.2002 24.2903 79.7102C26.0003 83.0002 36.8903 103.8 37.6303 105.85C37.7003 106.03 37.7303 105.98 39.1903 105.71C39.2849 106.074 39.2897 106.455 39.2043 106.822C39.1188 107.188 38.9456 107.528 38.6996 107.812C38.4536 108.096 38.1422 108.317 37.7922 108.454C37.4422 108.591 37.064 108.641 36.6903 108.6C35.0003 104.9 23.0703 83.5802 22.0003 81.9102ZM56.5503 106.29C55.8003 106.49 40.9903 108.64 37.9003 108.79C38.2165 108.7 38.5102 108.545 38.7624 108.334C39.0146 108.124 39.2195 107.862 39.3639 107.567C39.5082 107.271 39.5887 106.949 39.6002 106.62C39.6116 106.292 39.5537 105.965 39.4303 105.66C39.6403 105.66 55.4903 102.74 56.9903 102.92C58.3103 103.07 58.8403 105.68 56.5703 106.29H56.5503ZM57.2103 102.42C56.6503 102.18 39.0403 105.22 37.9803 105.42C36.6503 101.85 24.1303 78.5402 23.9803 78.3202C28.5203 77.5802 39.6103 75.4402 40.8603 75.2202C42.9152 79.2934 45.2335 83.2285 47.8003 87.0002C46.2003 86.9202 44.1303 87.0602 42.2303 86.8502C42.1932 86.8502 42.1575 86.8649 42.1313 86.8912C42.105 86.9174 42.0903 86.953 42.0903 86.9902C42.2703 88.7502 42.2703 90.5302 42.4603 92.2902C42.4603 92.4102 42.7103 92.4302 42.7303 92.4302C45.5703 92.5002 48.5103 91.5402 51.3103 92.5102C51.9403 93.7202 57.0503 102.15 57.2303 102.42H57.2103ZM51.8103 92.7802C52.0308 92.9024 52.217 93.0783 52.3516 93.2915C52.4862 93.5048 52.5648 93.7485 52.5803 94.0002C52.1703 93.3302 51.8903 92.8702 51.8303 92.7802H51.8103ZM55.1703 98.3302L52.7003 94.2402C53.7003 90.9502 46.2103 91.8902 42.8603 92.0202C42.6903 90.3302 42.6503 89.0202 42.4803 87.3002C45.4003 87.5802 48.3803 87.0802 51.2003 88.0102C55.4003 89.4002 57.3503 93.6102 55.1903 98.3302H55.1703ZM60.6503 96.4102C59.9803 99.4102 56.9703 99.9002 55.8403 97.5302C56.2646 96.4486 56.4425 95.2861 56.3612 94.1271C56.2799 92.9682 55.9414 91.8419 55.3703 90.8302C55.3703 90.7302 56.3703 88.6002 58.0603 89.2102C60.4103 90.0002 61.1403 94.3102 60.6703 96.4102H60.6503ZM61.1903 97.3402C61.0438 97.3301 60.8968 97.3301 60.7503 97.3402C61.5503 95.5702 61.0303 92.3402 60.1103 90.6602C63.4103 89.6402 63.7803 95.7502 61.2103 97.3402H61.1903ZM61.5703 97.3402C63.3703 96.4202 64.0003 91.4402 61.4003 90.3402C63.5103 89.9302 65.2003 89.7902 65.7503 91.5802C66.4803 93.9102 65.2903 97.3402 62.9303 97.7402C62.5019 97.5582 62.0513 97.4338 61.5903 97.3702L61.5703 97.3402ZM65.3403 99.3402C64.7397 98.7369 64.0437 98.2369 63.2803 97.8602C66.1303 97.8602 67.2803 91.7202 64.9303 90.1802C66.3564 90.3424 67.7381 90.7769 69.0003 91.4602C71.8803 94.0802 67.7103 100.32 65.3603 99.3402H65.3403ZM65.5103 99.5502C67.4403 100.55 71.9903 95.1702 69.5703 91.7802C71.2778 92.8588 72.7065 94.3252 73.7403 96.0602C73.7964 96.3911 73.8332 96.725 73.8503 97.0602C73.8503 100.47 70.3703 102.49 67.1203 101.65C66.674 100.891 66.1404 100.186 65.5303 99.5502H65.5103ZM67.1903 101.8C68.0004 102.129 68.8826 102.24 69.749 102.122C70.6153 102.004 71.4355 101.66 72.1277 101.126C72.8198 100.592 73.3598 99.8851 73.6936 99.077C74.0275 98.2688 74.1436 97.3872 74.0303 96.5202C74.9403 98.0102 75.7003 99.5902 76.5303 101.13C76.5032 101.564 76.4464 101.995 76.3603 102.42C75.6103 105.32 72.0003 107.09 68.6503 105.11C68.2738 103.965 67.7917 102.857 67.2103 101.8H67.1903ZM68.7103 105.27C71.9903 107.87 76.6403 105.27 76.7103 101.55C77.3627 102.792 78.1293 103.97 79.0003 105.07C79.0003 111.22 72.6503 111.84 69.9403 108.84C69.3503 107.12 69.1603 106.47 68.7303 105.27H68.7103ZM70.0803 109.08C73.4803 113.37 79.7503 109.99 79.2703 105.34C80.0199 106.247 80.8955 107.042 81.8703 107.7C83.2603 113.29 76.4203 116.48 72.2403 113.64C71.4082 112.179 70.6927 110.654 70.1003 109.08H70.0803ZM72.4803 114.08C77.1403 117.35 83.4803 112.88 82.1203 107.92C82.9935 108.468 83.9769 108.816 85.0003 108.94C86.5603 116.5 80.3703 120.52 77.0003 119.48C75.2053 117.917 73.6843 116.065 72.5003 114L72.4803 114.08ZM77.2903 119.77C82.8103 121.16 87.0303 113.5 85.2003 109.02C85.4964 109.045 85.7941 109.045 86.0903 109.02C87.3303 111.56 88.4103 113.77 89.1703 115.31C89.1663 116.831 88.7634 118.324 88.0018 119.64C87.2402 120.956 86.1466 122.049 84.8303 122.81C82.0458 122.662 79.3942 121.573 77.3103 119.72L77.2903 119.77ZM85.1403 122.77C86.4641 122.1 87.5637 121.058 88.3043 119.772C89.045 118.486 89.3946 117.012 89.3103 115.53C90.4503 117.85 90.0803 117.43 91.0903 117.76C91.2603 119.18 91.4503 120.59 91.6603 122C89.5557 122.637 87.3554 122.897 85.1603 122.77H85.1403ZM106.44 147C106.014 144.663 106.075 142.263 106.62 139.95C108.13 134.73 113.27 131.32 116.5 136.64C116.84 137.21 117.17 137.8 117.5 138.4C111.44 139.58 106.53 146.87 106.44 147ZM118.51 146.76C107.64 157.3 114.06 170.04 116.9 173.06C115.25 171.37 105.51 157.75 118.45 146.61C118.49 146.57 118.58 146.69 118.51 146.75V146.76ZM117 136.47C116.346 135.154 115.217 134.135 113.84 133.62C110.14 132.62 104.48 136.99 106.04 147.62C105.74 148.07 104.49 150.21 104.21 150.83C94.6603 144.69 93.2803 125.37 92.0103 118.06C96.0103 119.39 110.88 124.12 111.31 124.06C111.694 124.003 112.041 123.799 112.278 123.491C112.515 123.184 112.623 122.796 112.58 122.41C113.112 122.567 113.666 122.635 114.22 122.61C115.149 124.031 116.15 125.403 117.22 126.72C117.084 127.217 117.131 127.746 117.353 128.211C117.575 128.676 117.958 129.045 118.43 129.25C118.674 129.355 118.943 129.387 119.205 129.345C119.467 129.303 119.712 129.186 119.91 129.01C120.67 131.01 129.27 135.56 131.38 136.46C139.928 140.058 149.435 140.685 158.38 138.24C154.67 151.71 140.28 161.02 133.16 161.61C122.73 162.46 122.72 153.82 122.27 151.13C121.429 145.961 119.642 140.992 117 136.47ZM124.92 165.92C123.39 163.92 122.78 161.38 124.5 159.51C126.37 161.8 129.07 162.51 132 162.22C133.835 162.14 135.649 161.803 137.39 161.22C137.604 162.531 137.529 163.872 137.17 165.15C134.7 170.77 128 169.83 124.91 165.92H124.92ZM151.92 187.99C150.92 188.366 149.961 188.846 149.06 189.42C147.36 186.96 145.13 185.15 142.97 182.94C140.57 180.5 135.65 177.78 132.97 176.55L131.67 175.83C132.99 175.3 137.05 173.68 138.09 173.2C146.09 178.34 148.54 182.99 148.97 182.94C159.05 182.1 167.24 184.83 172.16 188.59C164.52 184.61 155.85 186.36 151.88 188L151.92 187.99ZM170 186.78C160.68 180.61 149.36 182.65 149.2 182.46C146.147 178.736 142.502 175.54 138.41 173C138.417 172.986 138.421 172.971 138.421 172.955C138.421 172.94 138.417 172.924 138.41 172.91C136.911 171.882 135.292 171.039 133.59 170.4C136.752 169.078 140.146 168.403 143.573 168.417C147 168.431 150.39 169.132 153.54 170.48C154.3 170.8 154.78 171.14 155.54 171.4C155.54 171.4 160.86 175.9 163.3 178.08C167.115 181.452 170.546 185.235 173.53 189.36C172.438 188.39 171.256 187.526 170 186.78ZM172.48 189.28L174.17 190.22C174.731 189.655 175.322 189.121 175.94 188.62C175.984 188.848 175.982 189.082 175.935 189.309C175.887 189.536 175.796 189.752 175.665 189.944C175.535 190.135 175.368 190.3 175.174 190.427C174.98 190.554 174.763 190.642 174.535 190.685C174.307 190.729 174.073 190.727 173.846 190.679C173.619 190.632 173.404 190.541 173.212 190.41C173.02 190.28 172.856 190.113 172.729 189.919C172.601 189.725 172.514 189.508 172.47 189.28H172.48ZM174.32 189.74C174.866 188.565 175.595 187.485 176.48 186.54C179.78 183.08 186.99 180.22 191.8 179.12C192.8 180.94 193.71 182.77 194.63 184.61C188 183.83 177.62 185.63 174.31 189.74H174.32ZM27.6603 153C27.6446 152.993 27.6275 152.989 27.6103 152.989C27.593 152.989 27.576 152.993 27.5603 153C27.5533 153.014 27.5496 153.03 27.5496 153.045C27.5496 153.061 27.5533 153.076 27.5603 153.09C27.5574 153.11 27.5589 153.131 27.5646 153.15C27.5703 153.169 27.5802 153.187 27.5935 153.202C27.6068 153.218 27.6232 153.23 27.6417 153.238C27.6601 153.246 27.6801 153.25 27.7003 153.25L30.9603 153.37C35.9603 153.57 44.4403 153.89 45.5203 153.89C45.5475 153.882 45.5714 153.866 45.5884 153.843C45.6054 153.821 45.6146 153.793 45.6146 153.765C45.6146 153.737 45.6054 153.709 45.5884 153.687C45.5714 153.664 45.5475 153.648 45.5203 153.64C44.1403 153.54 38.5203 153.32 28.6503 152.98L27.6603 153ZM40.0003 151L43.9003 151.11C43.9182 151.112 43.9362 151.109 43.9531 151.103C43.9701 151.097 43.9856 151.088 43.9987 151.076C44.0119 151.064 44.0224 151.049 44.0295 151.032C44.0367 151.016 44.0403 150.998 44.0403 150.98C44.0417 150.962 44.0394 150.943 44.0336 150.926C44.0278 150.908 44.0185 150.892 44.0065 150.878C43.9944 150.864 43.9797 150.853 43.9632 150.845C43.9467 150.836 43.9287 150.831 43.9103 150.83C39.9103 150.51 31.4703 150.32 26.4003 150.2H26.0003C24.0003 150.2 22.5003 150.12 22.0003 150.09C21.9754 150.089 21.9508 150.094 21.9282 150.105C21.9056 150.115 21.8858 150.131 21.8703 150.15C21.858 150.173 21.8516 150.199 21.8516 150.225C21.8516 150.251 21.858 150.277 21.8703 150.3C21.882 150.323 21.8991 150.342 21.92 150.356C21.941 150.37 21.9652 150.378 21.9903 150.38C26.1003 150.6 34.7703 150.82 40.0003 151Z" fill="black"/>
<path d="M87.64 160.79C92.55 156.95 91.18 152.47 88.27 151.63C89.73 150.63 89.91 150.55 89.75 150.31C89.7235 150.271 89.683 150.242 89.6367 150.231C89.5904 150.22 89.5416 150.227 89.5 150.25C85.41 150.66 84.15 145.41 88.09 142.2C88.1012 142.189 88.1101 142.176 88.1162 142.161C88.1222 142.146 88.1253 142.131 88.1253 142.115C88.1253 142.099 88.1222 142.084 88.1162 142.069C88.1101 142.054 88.1012 142.041 88.09 142.03C88.1023 141.998 88.1023 141.962 88.09 141.93C88.0698 141.906 88.0428 141.888 88.0126 141.879C87.9823 141.87 87.9501 141.871 87.92 141.88L79.13 141.33C79.84 140.91 80.04 140.88 80.07 140.56C80.1 140.24 78.66 139.51 79.38 137.28C79.6485 136.334 80.0384 135.426 80.54 134.58C83.26 133.2 83.18 133.17 83.14 133.02C83.1189 132.945 83.0795 132.877 83.0254 132.821C82.9713 132.765 82.9041 132.724 82.83 132.7C75.76 132.2 51.92 131.07 51.83 131.14C35.83 137.75 19.64 145.65 18.83 146.33C16.97 147.85 16.62 150.87 16.64 151.94C6.00004 160.12 5.92004 160.24 5.45004 161.15C5.09756 161.853 4.99761 162.657 5.16693 163.425C5.33625 164.193 5.76455 164.88 6.38004 165.37C8.88004 167.22 11.66 165.28 14.06 168.01C14.4886 168.479 14.8021 169.041 14.9757 169.652C15.1492 170.263 15.1781 170.906 15.06 171.53C10.96 173.6 8.18004 174.08 8.82004 174.53C13.34 176.24 12.06 181.09 8.15004 182.2C8.11075 182.21 8.07578 182.232 8.05078 182.264C8.02577 182.295 8.01217 182.335 8.01217 182.375C8.01217 182.415 8.02577 182.455 8.05078 182.486C8.07578 182.518 8.11075 182.541 8.15004 182.55C8.31004 182.55 54.15 186.13 57.76 186.46C59.0404 186.621 60.3407 186.47 61.55 186.02C62.26 185.72 84.6 171.02 85.86 170.16C87.86 168.81 89.86 167.08 90.23 164.54C90.41 163.07 89.62 161.57 87.64 160.79ZM9.82004 174.57C9.92004 174.57 60.63 178.57 60.82 178.65C61.1923 178.724 61.5448 178.875 61.8549 179.094C62.165 179.313 62.4256 179.594 62.62 179.92C63.72 182.23 62.37 185.37 58.62 186.06C57.55 186 15.44 182.71 9.00004 182.24C12.45 180.63 13.31 176.58 9.82004 174.57ZM12.72 166.5C51.89 169.27 57.53 169.5 57.72 169.5C58.5867 169.728 59.3678 170.205 59.9673 170.871C60.5668 171.538 60.9586 172.364 61.0946 173.25C61.2305 174.136 61.1047 175.043 60.7326 175.858C60.3605 176.673 59.7583 177.362 59 177.84C57.62 177.74 18.93 174.84 13.45 174.41C16.13 172.87 16.32 168.41 12.72 166.5ZM79.5 140.5C78.65 141 54 155.61 53.24 156C51.6 156.09 49.88 154.28 50.45 151.56C51.26 147.69 52.45 148.08 80.04 134.73C78.94 136.61 77.77 139.21 79.5 140.47V140.5ZM53.77 146.91H53.71C23.08 146.91 20.59 146.04 18.4 147.33C19.4 145.96 19.24 146.33 37.71 137.98C45.12 134.62 50.86 131.98 51.71 131.63C59.4 132.28 78.78 132.95 82.24 133.13C79.43 134.5 55.09 146.17 53.77 146.88V146.91ZM31.44 147.27C37.95 147.45 46.04 147.67 53.1 147.41C50.01 149.02 48.41 154.12 51.82 156.2C23.69 155.53 19.24 157.3 17.48 154.07C17.0474 153.229 16.8668 152.281 16.96 151.34C17.7 146.45 18.43 146.9 31.44 147.24V147.27ZM20.83 156.27C21.07 156.39 51.83 156.69 53.1 156.69C53.23 156.69 68.81 147.4 78.44 141.69C79.21 141.78 85.66 142.12 87.37 142.18C84.48 144.07 60.47 159.33 58.45 161.11C50.16 160.52 9.69004 159.67 9.58004 159.67C8.44749 159.595 7.31535 159.823 6.30004 160.33C6.99004 159.64 13.63 154.58 16.55 152.33C16.81 155 19 156.58 20.83 156.28V156.27ZM88.73 150.75C85.61 152.75 61 168.48 59.85 169.2C58.22 168.57 57.05 167.83 56.85 165.63C56.43 161.1 59.78 161 87 142.79C83.91 146 85.45 150.62 88.73 150.76V150.75ZM60.55 177C62.24 174.65 61.72 170.86 58.93 169.5C59.93 169.5 58.39 170.82 73.37 161.08C79.46 157.23 86.89 152.53 87.85 151.87C88.4226 152.004 88.9505 152.285 89.3818 152.685C89.8131 153.084 90.133 153.589 90.31 154.15C91.57 157.98 87.06 160.82 83.71 163.1C78.21 166.87 64.36 174.93 60.55 177ZM58.48 169.09C30.67 167.25 8.80004 165.89 7.91004 165.67C7.41239 165.595 6.94055 165.4 6.53527 165.101C6.12999 164.803 5.80347 164.41 5.58392 163.957C5.36437 163.504 5.25839 163.005 5.27513 162.502C5.29188 161.999 5.43085 161.507 5.68004 161.07C6.05004 161.18 5.68004 160.07 9.58004 160.01C11.45 160.01 53.11 161.17 58.14 161.36C55.53 164.12 56.15 167.71 58.48 169.13V169.09ZM12.57 174.32C11.47 174.25 10.57 174.21 9.72004 174.17C11.02 173.7 13.72 172.57 14.8 172.01C14.3694 173.04 13.576 173.876 12.57 174.36V174.32ZM59.88 177.9C69.2655 172.769 78.3809 167.158 87.19 161.09C87.78 161.42 89.58 162.51 89.74 163.61C89.97 165.18 88.79 166.81 88.27 167.44C87.54 168.33 63.59 184.23 62.14 185.15C61.6121 185.482 61.0299 185.719 60.42 185.85C64.09 184.36 65.05 178.73 59.88 177.94V177.9Z" fill="black"/>
</svg>
