<svg width="200" height="200" viewBox="0 0 200 200" fill="none" xmlns="http://www.w3.org/2000/svg">
<path d="M109.312 65.5666C108.482 65.9926 109.85 67.5196 110.166 66.3316C110.216 65.9666 109.685 65.3746 109.312 65.5666Z" fill="black"/>
<path d="M114.127 64.2316C114.177 63.8666 113.647 63.2776 113.273 63.4676C112.445 63.8996 113.811 65.4196 114.127 64.2316Z" fill="black"/>
<path d="M66.6656 125.418C66.5364 125.448 66.4246 125.528 66.3546 125.641C66.2847 125.754 66.2624 125.889 66.2926 126.019C66.3228 126.148 66.4031 126.26 66.5158 126.33C66.6285 126.399 66.7644 126.422 66.8936 126.392C74.348 124.66 82.0809 124.495 89.6024 125.908C97.1238 127.321 104.27 130.281 110.588 134.6C110.694 134.6 110.798 134.566 110.884 134.502C110.97 134.439 111.034 134.35 111.066 134.248C111.097 134.146 111.096 134.037 111.061 133.936C111.026 133.835 110.96 133.748 110.872 133.688C104.482 129.314 97.251 126.32 89.6398 124.896C82.0286 123.472 74.2043 123.65 66.6656 125.418Z" fill="black"/>
<path d="M113.886 130.54C102.424 123.372 89.6145 118.554 76.0235 120.553C75.8957 120.574 75.7812 120.644 75.7041 120.748C75.627 120.852 75.5932 120.982 75.6099 121.11C75.6266 121.239 75.6925 121.356 75.7937 121.437C75.8949 121.517 76.0235 121.556 76.1525 121.544C84.5315 120.445 93.0523 121.548 100.875 124.744C105.19 126.656 109.362 128.877 113.357 131.389C113.47 131.459 113.606 131.481 113.735 131.451C113.864 131.421 113.976 131.341 114.046 131.229C114.117 131.116 114.139 130.98 114.109 130.851C114.079 130.722 113.999 130.61 113.886 130.54Z" fill="black"/>
<path d="M84.9723 116.907C84.8397 116.911 84.7144 116.969 84.624 117.066C84.5336 117.163 84.4855 117.292 84.4903 117.425C84.4951 117.557 84.5524 117.682 84.6495 117.773C84.7466 117.863 84.8757 117.911 85.0083 117.907C96.5379 117.497 107.821 121.306 116.744 128.619C117.231 129.035 117.892 128.253 117.379 127.846C108.25 120.41 96.7404 116.526 84.9723 116.907Z" fill="black"/>
<path d="M82.2222 113.266C82.0895 113.275 81.9662 113.337 81.8793 113.438C81.7924 113.538 81.749 113.669 81.7587 113.802C81.7683 113.935 81.8303 114.058 81.9309 114.145C82.0315 114.232 82.1625 114.275 82.2952 114.266C96.2244 113.234 110.015 117.615 120.795 126.496C121.278 126.913 121.945 126.131 121.429 125.724C110.443 116.693 96.4056 112.233 82.2222 113.266Z" fill="black"/>
<path d="M87.0835 111.022C93.8225 110.095 100.684 110.713 107.149 112.828C113.615 114.942 119.515 118.499 124.403 123.229C124.853 123.684 125.578 122.959 125.098 122.511C120.094 117.685 114.061 114.055 107.453 111.894C100.845 109.732 93.8336 109.096 86.9445 110.032C86.8157 110.053 86.7003 110.124 86.623 110.229C86.5457 110.334 86.5126 110.465 86.5307 110.595C86.5489 110.724 86.6169 110.841 86.7201 110.921C86.8234 111.001 86.9538 111.037 87.0835 111.022Z" fill="black"/>
<path d="M35.8365 113.315C33.1215 113.971 32.9145 117.775 35.9815 117.815C40.1205 117.838 40.2115 112.257 35.8365 113.315ZM37.9365 115.909C37.6424 116.263 37.2553 116.529 36.8186 116.676C36.382 116.822 35.9131 116.845 35.4645 116.74C34.1005 116.24 34.7345 114.623 36.1425 114.267C37.2365 113.741 38.6945 114.807 37.9355 115.909H37.9365Z" fill="black"/>
<path d="M153.079 126.113C152.521 126.113 152.267 126.113 150.814 135.325C150.114 139.741 149.46 144.406 149.345 145.264C149.406 146.294 151.406 145.81 152.12 145.964C168.739 145.76 169.141 127.35 153.079 126.113ZM161.814 141.25C158.93 144.438 154.122 145.216 150.406 144.886C150.994 140.586 152.727 128.946 153.355 127.124C161.153 127.513 167.414 135.059 161.814 141.25Z" fill="black"/>
<path d="M194.783 55.3456C192.929 53.9526 190.733 55.1356 189.07 53.6566C188.904 53.4953 188.706 53.3706 188.488 53.2907C188.271 53.2109 188.039 53.1776 187.808 53.1931C187.576 53.2085 187.351 53.2724 187.146 53.3805C186.941 53.4886 186.761 53.6386 186.618 53.8206C186.046 54.526 185.715 55.3956 185.672 56.3026C179.781 62.3716 172.802 67.0606 161.872 69.7076C164.159 67.362 166.027 64.642 167.395 61.6656C170.695 53.6166 157.322 47.4656 151.495 46.0036C151.237 44.9126 152.027 43.1706 152.348 42.0526C152.713 40.5796 151.648 39.8526 150.868 40.2526C148.947 40.8866 148.025 43.0046 146.91 44.4636C144.731 47.3636 146.375 48.2386 148.934 49.5476C148.858 49.6466 148.824 49.7717 148.839 49.8957C148.855 50.0197 148.919 50.1325 149.017 50.2096C150.339 51.5236 156.817 56.6736 154.289 58.6336C152.921 59.6906 148.822 62.8576 146.442 64.8826C141.799 64.6586 139.773 64.6476 136.774 65.1646C136.738 65.1711 136.705 65.1894 136.681 65.2167C136.656 65.2439 136.641 65.2786 136.639 65.3152C136.636 65.3518 136.646 65.3882 136.666 65.4187C136.686 65.4492 136.716 65.4721 136.751 65.4836C145.596 69.7496 147.186 81.1766 144.327 89.3336C146.29 89.1976 149.732 89.4176 151.362 88.6586C157.522 88.0476 166.23 86.3586 170.816 83.7516C175.51 81.1954 179.578 77.6292 182.726 73.3103C185.874 68.9914 188.025 64.0274 189.022 58.7766C190.811 58.1098 192.647 57.575 194.514 57.1766C195.38 57.0406 196.014 55.7806 194.783 55.3456ZM155.426 48.3886C160.814 50.4976 168.903 55.6766 166.484 61.2506C164.93 64.6369 162.707 67.6738 159.949 70.1786C158.97 70.4166 157.68 70.6706 156.68 70.8926C159.597 67.9874 162.25 64.829 164.608 61.4546C165.269 60.6054 165.688 59.5929 165.82 58.5246C165.308 55.0296 162.02 54.0326 159.303 52.1746C157.898 51.3921 156.544 50.5199 155.251 49.5636C155.368 49.1829 155.427 48.7868 155.426 48.3886ZM149.939 48.9646L147.792 47.7886C147.25 47.4966 146.692 47.0356 146.967 46.3666C147.612 45.1844 148.348 44.0537 149.167 42.9846C149.646 42.1345 150.418 41.4879 151.339 41.1656C151.411 41.2016 151.461 41.4896 151.399 41.7526C150.897 43.0844 150.55 44.4695 150.364 45.8806C150.306 46.1708 150.321 46.4709 150.408 46.7537C150.496 47.0365 150.652 47.2929 150.864 47.4996C150.74 48.0826 150.412 48.6022 149.939 48.9646ZM151.279 50.8936C150.931 50.5746 150.601 50.2446 150.266 49.9576C150.748 49.6631 151.15 49.2551 151.438 48.7693C151.725 48.2835 151.89 47.7346 151.916 47.1706C152.704 47.4096 153.534 47.6866 154.365 47.9886C154.78 49.8286 153.018 51.7776 151.279 50.8936ZM145.25 65.7996C145.794 65.7506 146.439 66.0636 146.929 65.7856C149.261 63.7856 153.507 60.5056 154.874 59.4486C157.643 57.2206 154.23 53.9556 152.422 52.0726C152.929 52.0515 153.421 51.8959 153.848 51.622C154.275 51.3481 154.622 50.9655 154.852 50.5136C157.582 52.9356 163.986 54.7886 164.823 58.4716C164.701 59.3487 164.347 60.1772 163.797 60.8716C161.359 64.3655 158.602 67.6252 155.56 70.6086C155.066 70.0086 153.868 68.5616 153.225 69.4586C153.199 69.5191 153.186 69.5841 153.185 69.6498C153.184 69.7156 153.196 69.7809 153.221 69.8419C153.245 69.9029 153.282 69.9585 153.328 70.0055C153.374 70.0525 153.429 70.0899 153.489 70.1156C154.093 70.4014 154.595 70.8656 154.927 71.4456C155.264 72.6986 157.445 71.6346 158.34 71.5616C168.908 69.4536 178.431 65.0926 184.104 59.1616C184.76 59.3132 185.353 59.6622 185.804 60.1616C180.113 74.3866 168.221 82.6726 153.132 82.9926C153.644 76.4086 151.572 69.0076 145.25 65.7996ZM181.415 73.4996C174.792 82.8786 164.333 86.2906 152.532 87.5246C152.847 86.3737 153.024 85.1894 153.058 83.9966C168.447 83.7046 180.601 75.3486 186.53 60.9846C188.313 63.2366 183.1 71.1156 181.415 73.4996ZM187.7 60.2246C187.656 60.4026 187.6 60.5776 187.553 60.7546C186.958 59.6732 186.014 58.8254 184.875 58.3496C185.34 57.8876 185.985 56.8896 186.655 57.1436C186.952 57.2459 187.222 57.4148 187.443 57.6374C187.665 57.86 187.832 58.1304 187.933 58.4278C188.034 58.7252 188.066 59.0418 188.025 59.3533C187.985 59.6647 187.874 59.9628 187.7 60.2246ZM188.794 57.7576C188.339 57.0858 187.714 56.5475 186.981 56.1986C186.297 56.2136 187.168 54.6726 187.387 54.4516C188.052 53.2856 189.957 56.5006 193.387 56.4306C191.833 56.7885 190.3 57.2315 188.794 57.7576Z" fill="black"/>
<path d="M112.409 62.8687C112.88 62.7377 113.417 62.4037 113.842 62.6307C113.965 62.6799 114.103 62.6781 114.224 62.6258C114.346 62.5735 114.442 62.4749 114.492 62.3517C114.541 62.2285 114.539 62.0908 114.487 61.9689C114.434 61.847 114.336 61.7509 114.213 61.7017C113.621 61.4137 111.629 61.5527 111.98 62.6267C112.024 62.7006 112.087 62.7618 112.162 62.8042C112.237 62.8466 112.322 62.8688 112.409 62.8687Z" fill="black"/>
<path d="M108.745 65.5256C108.851 65.1563 109.07 64.8292 109.37 64.5896C109.476 64.51 109.546 64.3916 109.565 64.2603C109.584 64.129 109.55 63.9957 109.47 63.8896C109.391 63.7835 109.272 63.7134 109.141 63.6946C109.01 63.6758 108.876 63.71 108.77 63.7896C108.287 64.1679 107.939 64.6913 107.776 65.2826C107.75 65.4087 107.774 65.5399 107.843 65.6489C107.912 65.7578 108.02 65.8361 108.144 65.8674C108.269 65.8987 108.402 65.8807 108.513 65.817C108.625 65.7533 108.708 65.6489 108.745 65.5256Z" fill="black"/>
<path d="M113.774 68.0857C113.309 68.5377 114.029 69.2577 114.481 68.7927C114.681 68.5927 114.851 68.4008 115.023 68.2038C114.77 68.6428 114.489 69.2318 115.241 69.3438C116.223 69.0628 116.241 67.6008 115.632 66.9138C114.858 66.2508 114.327 67.7047 113.774 68.0857Z" fill="black"/>
<path d="M111.752 67.8248C112.342 68.1028 113.605 67.1448 112.884 66.5378C112.562 66.2848 112.184 66.6378 112.039 66.8638C111.76 66.5508 112.409 64.3848 111.48 64.4218C111.348 64.4218 111.22 64.4745 111.127 64.5682C111.033 64.662 110.98 64.7892 110.98 64.9218C111.045 65.7278 110.66 67.5718 111.752 67.8248Z" fill="black"/>
<path d="M174.037 128.183C170.76 121.549 162.537 117.619 152.904 116.029C156.896 112.434 158.487 110.946 158.585 110.75C158.994 109.129 158.712 103.523 159.504 102.031C159.545 101.924 159.551 101.808 159.521 101.698C159.492 101.588 159.428 101.49 159.339 101.419C153.832 97.6623 147.808 94.7253 141.456 92.6998C147.031 83.9118 144.666 68.1378 133.111 65.1648C135.289 62.0558 133.017 57.3058 129.202 57.6188C126.683 57.6566 124.17 57.9031 121.691 58.3558C122.322 57.8238 121.991 56.6558 121.539 56.2278C123.567 55.0868 120.995 51.4938 119.039 51.6738C119.139 50.1338 118.065 47.3198 116.26 48.5458C115.732 47.7673 115.063 47.0941 114.287 46.5608C113.277 45.9608 111.98 45.8218 111.422 46.9098C110.589 46.375 109.65 46.0248 108.669 45.8828C107.397 45.8648 106.269 46.6828 106.423 47.8238C105.071 47.5238 103.583 47.6668 102.847 49.0238C102.492 49.8388 103.296 50.3018 102.031 50.2418C100.258 50.4028 99.1314 52.8188 100.931 53.9528C98.9664 54.4018 97.4314 57.9608 100.107 58.5218C99.1614 59.8218 98.5134 61.7598 99.5924 63.0688C85.6974 65.3948 74.6224 67.3318 64.1504 69.4038C59.0954 71.6818 55.3124 74.6818 50.4674 77.2038C50.3538 77.2628 50.2672 77.363 50.2254 77.484C50.1835 77.6049 50.1896 77.7372 50.2424 77.8538C50.9804 79.4778 64.4544 80.6538 67.1474 80.8768C79.53 79.0827 91.8071 76.6235 103.925 73.5098C99.6874 76.8998 93.6324 80.0678 93.1064 86.1148C79.8504 84.6078 67.4854 86.5278 57.0154 93.1998C39.3004 103.715 20.9364 114.257 4.5304 127.276C4.9934 130.325 6.0304 133.401 6.1854 136.269C6.19522 136.38 6.24186 136.484 6.3179 136.566C6.39394 136.647 6.49502 136.701 6.6051 136.719C6.71517 136.736 6.82793 136.716 6.92545 136.662C7.02298 136.608 7.09969 136.523 7.1434 136.421C18.9934 132.956 32.3884 132.868 44.6574 135.586C54.6404 137.338 51.3464 142.025 54.3734 142.686C54.5544 142.731 57.9264 143.149 57.9734 143.094C58.6064 143.04 58.8914 142.319 58.8734 141.824C59.2334 137.224 61.9474 137.115 66.3354 137.324C86.7944 138.652 94.1604 142.014 111.12 152.824C111.184 152.865 111.256 152.891 111.332 152.899C111.407 152.908 111.484 152.898 111.555 152.871C111.626 152.844 111.689 152.801 111.741 152.745C111.792 152.689 111.829 152.622 111.849 152.549C121.932 143.549 136.764 130.471 143.365 124.549C140.826 134.961 138.506 145.494 135.887 158.478C135.874 158.545 135.874 158.614 135.889 158.681C135.903 158.748 135.931 158.812 135.971 158.867C136.011 158.923 136.062 158.97 136.121 159.005C136.18 159.04 136.245 159.063 136.313 159.072C146.702 160.4 160.136 160.727 168.351 154.115C176.181 148.235 178.9 136.728 174.037 128.183ZM129.225 58.6188C132.767 58.5928 133.967 62.5058 132.042 64.8978C130.676 64.5763 129.277 64.4086 127.873 64.3978C128.103 63.3827 128.052 62.3241 127.724 61.3363C127.396 60.3484 126.805 59.4689 126.013 58.7928C127.069 58.6928 128.142 58.6278 129.225 58.6188ZM126.354 78.5358C126.074 77.2578 127.203 77.0668 127.482 78.3538C128.014 82.272 127.583 86.2607 126.226 89.9748C121.203 89.3109 116.093 89.8948 111.348 91.6748C109.776 90.8064 108.14 90.0589 106.454 89.4388C108.999 87.6048 112.238 85.0298 114.733 83.3488C117.299 86.4358 120.858 88.5355 124.8 89.2888C124.913 89.2849 125.022 89.2445 125.11 89.1737C125.198 89.1028 125.261 89.0053 125.288 88.8958C126.434 85.57 126.799 82.0252 126.354 78.5358ZM121.243 64.0278C121.635 63.3269 121.83 62.5335 121.809 61.731C121.789 60.9284 121.552 60.1463 121.124 59.4668C122.185 59.2998 123.352 59.0538 124.524 58.9668C125.48 59.4782 126.231 60.3033 126.65 61.3032C127.069 62.3031 127.13 63.4168 126.824 64.4568C125.095 64.5998 121.688 64.9398 120.524 65.0568C120.084 64.7378 121.151 64.5098 121.243 64.0278ZM108.2 62.2168C109.677 62.8408 111.064 61.5348 111.635 60.1668C112.155 60.3774 112.73 60.4072 113.269 60.2515C113.808 60.0957 114.278 59.7633 114.605 59.3078C114.788 59.4706 115.012 59.5779 115.254 59.617C115.495 59.6562 115.742 59.6256 115.966 59.5288C116.256 60.0128 116.925 60.8948 117.439 61.5588C117.406 61.9676 117.481 62.3782 117.656 62.7488C117.77 62.975 117.954 63.1587 118.18 63.2729C118.406 63.3871 118.662 63.4258 118.912 63.3833C119.162 63.3407 119.391 63.2192 119.566 63.0366C119.742 62.854 119.854 62.6199 119.886 62.3688C119.878 62.2338 120.266 62.2408 120.396 61.9618C120.615 61.6833 120.722 61.3331 120.696 60.9798C120.925 61.9378 120.842 63.7198 119.691 63.9938C119.301 64.0158 118.932 64.4938 119.164 64.8568C120.03 66.3275 121.106 67.664 122.357 68.8238C122.701 71.7058 118.257 75.3998 116.434 71.8598C117.103 71.2548 117.343 72.0378 117.87 72.4868C118.17 72.7868 118.679 72.2868 118.376 71.9808C117.988 71.6594 117.648 71.2847 117.364 70.8678C117.264 70.6678 117.064 70.6678 116.858 70.7678C115.757 71.591 114.379 71.9539 113.014 71.7798C112.242 71.5889 111.516 71.243 110.881 70.7633C110.247 70.2835 109.716 69.6798 109.321 68.9888C109.241 68.5058 109.106 67.6998 108.457 67.3888C107.696 66.8418 107.489 65.5808 107.102 64.7158C107.636 63.967 108.01 63.1163 108.2 62.2168ZM113.421 72.4998C110.979 73.9838 107.321 71.8388 107.149 69.0848C107.165 68.8649 107.265 68.6595 107.428 68.5108C107.591 68.362 107.804 68.2812 108.024 68.2848C108.264 68.4468 108.309 69.0728 108.374 69.3578C108.545 70.0408 109.367 71.1318 109.991 70.8758C110.895 71.8219 112.117 72.4004 113.421 72.4998ZM55.5464 78.4998C54.2355 78.3227 52.9391 78.051 51.6674 77.6868C53.0164 77.2588 54.3584 75.2868 55.7184 76.3318C55.9704 76.7058 55.3604 76.8808 55.3584 77.2268C55.2734 77.8028 56.0034 77.6888 56.2124 78.0588C56.1449 78.181 56.0493 78.2855 55.9335 78.3635C55.8177 78.4416 55.685 78.491 55.5464 78.5078V78.4998ZM67.0464 79.8558C63.6404 79.5738 59.9534 79.1558 56.9804 78.7238C57.0741 78.5954 57.1399 78.4488 57.1734 78.2933C57.2069 78.1379 57.2074 77.9772 57.1749 77.8216C57.1423 77.666 57.0775 77.5189 56.9846 77.39C56.8917 77.261 56.7727 77.1529 56.6354 77.0728C56.7206 76.902 56.7675 76.7147 56.7729 76.5239C56.7783 76.3331 56.7421 76.1434 56.6667 75.9681C56.5913 75.7927 56.4786 75.6359 56.3364 75.5086C56.1942 75.3813 56.026 75.2865 55.8434 75.2308C58.6021 73.4238 61.4748 71.7971 64.4434 70.3608C65.5385 70.4077 66.5904 70.8011 67.4474 71.4845C68.3044 72.1679 68.9222 73.1058 69.2116 74.1629C69.5011 75.2201 69.4473 76.3419 69.0579 77.3665C68.6686 78.3911 67.9639 79.2656 67.0454 79.8638L67.0464 79.8558ZM68.8464 79.6138C69.4878 78.8902 69.9501 78.0259 70.1959 77.0907C70.4417 76.1554 70.4641 75.1755 70.2614 74.2301C70.0586 73.2846 69.6364 72.4 69.0288 71.6478C68.4211 70.8956 67.6451 70.2968 66.7634 69.8998C77.0734 67.9248 88.1584 65.9668 102.019 63.6738C102.054 64.6418 102.866 65.8658 103.931 65.3448C104.231 65.1448 104.237 64.8718 104.517 65.3018C104.636 65.4491 104.784 65.5698 104.952 65.6562C105.12 65.7425 105.304 65.7925 105.493 65.8029C105.682 65.8132 105.87 65.7838 106.047 65.7164C106.223 65.649 106.384 65.5452 106.517 65.4118C106.773 66.0875 107.076 66.7448 107.422 67.3788C105.782 67.9118 105.957 69.9168 106.774 71.1378C106.388 71.3958 106.025 71.6869 105.689 72.0078C93.5547 75.2057 81.2566 77.7473 68.8484 79.6218L68.8464 79.6138ZM54.3224 141.434C54.2598 141.454 54.1939 141.461 54.1284 141.455C54.063 141.449 53.9994 141.431 53.9412 141.4C53.8829 141.37 53.8313 141.328 53.7891 141.278C53.7469 141.228 53.7151 141.169 53.6954 141.107C52.9853 138.841 51.5874 136.853 49.6958 135.418C47.8041 133.983 45.5126 133.173 43.1394 133.1C43.0068 133.1 42.8796 133.047 42.7858 132.953C42.6921 132.86 42.6394 132.732 42.6394 132.6C42.6394 132.467 42.6921 132.34 42.7858 132.246C42.8796 132.152 43.0068 132.1 43.1394 132.1C45.7266 132.168 48.2274 133.045 50.2908 134.608C52.3543 136.17 53.8767 138.339 54.6444 140.811C54.6832 140.936 54.6712 141.072 54.6109 141.188C54.5507 141.305 54.4471 141.393 54.3224 141.434ZM54.5894 137.034C47.7444 126.334 19.4034 124.819 7.6194 126.104C22.5284 114.726 38.9194 105.052 54.7874 95.6798C65.9654 88.1248 78.7874 85.3318 93.0924 87.1208C93.3244 90.0928 95.6374 90.3778 98.3484 90.4778C102.498 90.4778 107.382 85.8428 109.203 81.5938C110.492 79.1573 111.534 76.5983 112.314 73.9548C112.823 73.8836 113.313 73.7199 113.762 73.4718C111.204 78.7908 110.249 85.4928 105.24 89.0768C104.778 89.4118 105.17 89.9538 105.549 90.1528C107.288 90.8298 108.774 91.4528 110.24 92.1958C108.293 93.0308 106.274 94.5958 104.381 95.2348C93.8684 88.7128 79.3104 88.7678 67.1094 90.9348C55.9564 96.2278 46.5284 103.523 35.7504 109.5C28.8874 113.479 21.7914 117.593 15.0094 122.047C14.9178 122.107 14.8485 122.196 14.8123 122.299C14.7761 122.403 14.775 122.516 14.8091 122.62C14.8432 122.724 14.9107 122.814 15.0011 122.876C15.0915 122.939 15.1998 122.969 15.3094 122.964C24.8569 122.332 34.4384 123.491 43.5594 126.383C47.5854 127.635 52.5204 129.613 54.9984 133.826C54.6747 134.862 54.5362 135.947 54.5894 137.032V137.034ZM61.1764 108.228C51.2444 110.66 52.6674 107.161 54.7174 99.0998C60.5424 95.8918 65.1834 91.2708 72.3814 91.0998C83.2474 90.2998 94.5244 90.3338 103.505 95.8828C99.2544 98.2938 95.0054 100.845 90.7954 103.533C90.0364 103.862 89.3254 104.819 88.5144 104.672C79.3035 104.91 70.1419 106.101 61.1764 108.226V108.228ZM87.3764 105.719C84.1874 107.797 80.9024 110.045 77.3694 112.567C76.2384 112.418 73.8754 113.288 73.1414 112.442C72.1674 111.066 72.4414 108.799 72.3124 107.156C77.304 106.409 82.3318 105.929 87.3744 105.717L87.3764 105.719ZM43.8664 125.431C35.2234 122.705 26.1725 121.5 17.1174 121.872C29.1484 114.216 41.5984 107.472 53.5174 99.8428C50.8574 108.822 52.0174 111.655 61.4294 109.196C64.7207 108.448 68.0244 107.814 71.3404 107.296C71.3067 108.538 71.377 109.78 71.5504 111.011C71.8274 113.561 73.5984 114.152 75.8124 113.678C70.4113 117.648 65.2571 121.944 60.3784 126.542C58.3315 128.223 56.6535 130.308 55.4494 132.668C52.6474 128.556 47.5384 126.585 43.8644 125.429L43.8664 125.431ZM80.1314 137.125C80.0935 137.252 80.0066 137.359 79.89 137.422C79.7733 137.485 79.6364 137.499 79.5094 137.461C79.6354 137.306 55.4834 131.324 57.6224 141.461C57.6366 141.525 57.638 141.591 57.6265 141.656C57.6151 141.721 57.591 141.782 57.5557 141.838C57.5204 141.893 57.4745 141.941 57.4206 141.979C57.3668 142.016 57.3061 142.043 57.2419 142.057C57.1778 142.071 57.1114 142.073 57.0467 142.061C56.982 142.05 56.9202 142.026 56.8648 141.991C56.8095 141.955 56.7616 141.909 56.7239 141.856C56.6863 141.802 56.6596 141.741 56.6454 141.677C55.5944 137.432 59.7454 134.4 65.0314 134.565C70.0174 134.536 74.9841 135.187 79.7944 136.5C79.8573 136.519 79.9159 136.55 79.9668 136.591C80.0177 136.633 80.0599 136.684 80.091 136.742C80.1221 136.8 80.1415 136.863 80.1481 136.929C80.1547 136.994 80.1483 137.06 80.1294 137.123L80.1314 137.125ZM94.8254 136.265C94.7832 136.391 94.6928 136.494 94.5741 136.553C94.4554 136.612 94.3181 136.622 94.1924 136.58C94.0924 136.545 83.8834 133.134 76.3724 132.087C68.3904 130.975 60.2124 132.687 57.7544 135.981C57.3874 136.508 56.5484 135.898 56.9544 135.381C60.0304 131.255 69.3214 130.092 76.5124 131.094C84.1124 132.154 94.4124 135.594 94.5124 135.629C94.6376 135.672 94.7407 135.763 94.799 135.882C94.8573 136 94.8661 136.137 94.8234 136.263L94.8254 136.265ZM110.125 139.122C106.817 136.362 103.014 134.258 98.9184 132.922C91.5313 130.275 83.732 128.963 75.8854 129.049C70.3294 129.338 58.2764 129.849 55.5694 136.176C55.7444 132.595 58.2454 129.794 61.0604 127.276C74.2994 114.586 94.4774 101.676 110.316 93.2658C114.16 91.2158 119.401 90.4188 125.882 90.8928C125.508 91.4438 125.173 93.2748 124.518 93.0378C120.959 92.5591 117.357 92.49 113.781 92.8318C113.716 92.8374 113.652 92.856 113.593 92.8863C113.535 92.9167 113.483 92.9582 113.44 93.0086C113.398 93.0591 113.366 93.1174 113.346 93.1802C113.326 93.243 113.319 93.3091 113.324 93.3748C113.336 93.5074 113.399 93.63 113.501 93.7158C113.552 93.7582 113.61 93.7903 113.673 93.8102C113.736 93.8301 113.802 93.8374 113.867 93.8318C117.334 93.501 120.828 93.564 124.28 94.0198C123.664 95.0227 122.971 95.976 122.206 96.8708C122.133 96.774 122.026 96.708 121.906 96.6858C118.25 96.0725 114.526 95.9685 110.84 96.3768C110.775 96.384 110.711 96.404 110.653 96.4357C110.595 96.4674 110.544 96.5103 110.503 96.5618C110.461 96.6133 110.431 96.6724 110.412 96.7358C110.394 96.7992 110.388 96.8656 110.395 96.9313C110.402 96.997 110.422 97.0606 110.454 97.1185C110.486 97.1764 110.528 97.2275 110.58 97.2689C110.631 97.3103 110.691 97.3411 110.754 97.3596C110.817 97.3781 110.884 97.384 110.949 97.3768C114.498 96.9844 118.083 97.0789 121.606 97.6578C120.812 98.4868 119.823 100.073 118.706 100.241C118.414 100.083 107.284 97.6858 110.249 99.9068C112.816 100.08 115.363 100.469 117.863 101.07C116.713 102.058 114.839 101.783 113.704 102.705C113.128 102.94 112.756 103.615 113.076 104.034C111.976 103.858 103.968 102.334 103.917 103.658C103.917 103.79 103.97 103.918 104.064 104.011C104.158 104.105 104.285 104.158 104.417 104.158C105.703 104.301 114.039 104.151 112.298 105.707C111.865 106.324 111.718 107.713 112.714 107.8C112.96 107.706 112.735 108.477 112.985 108.737C106.411 106.212 99.3433 105.239 92.3314 105.892C92.1988 105.904 92.0766 105.969 91.9916 106.071C91.9067 106.174 91.8659 106.306 91.8784 106.439C91.8909 106.571 91.9555 106.694 92.0581 106.779C92.1607 106.864 92.2928 106.904 92.4254 106.892C106.341 105.457 119.88 111.117 129.507 120.857C129.605 120.857 129.701 120.829 129.783 120.775C129.864 120.722 129.929 120.645 129.967 120.555C130.006 120.466 130.018 120.367 130.001 120.27C129.984 120.174 129.939 120.085 129.872 120.014C125.425 115.31 120.023 111.612 114.028 109.168C114.285 109.044 114.499 108.845 114.642 108.599C114.65 108.767 114.706 108.93 114.803 109.068C114.901 109.206 115.036 109.312 115.193 109.374C115.35 109.437 115.522 109.452 115.687 109.419C115.853 109.387 116.005 109.306 116.126 109.189C116.926 108.278 117.829 107.464 118.818 106.765C123.872 108.75 128.432 111.814 132.18 115.743C132.225 115.793 132.279 115.833 132.34 115.862C132.4 115.891 132.466 115.907 132.533 115.91C132.6 115.913 132.667 115.902 132.729 115.879C132.792 115.855 132.85 115.819 132.898 115.773C132.947 115.727 132.986 115.672 133.012 115.61C133.039 115.549 133.053 115.483 133.054 115.416C133.055 115.348 133.042 115.282 133.016 115.22C132.991 115.158 132.953 115.102 132.905 115.055C129.382 111.367 125.157 108.42 120.479 106.388C122.895 106.195 125.259 105.586 127.466 104.588C131.339 106.54 134.909 109.042 138.066 112.016C138.114 112.063 138.17 112.101 138.232 112.126C138.294 112.151 138.36 112.163 138.427 112.162C138.494 112.161 138.56 112.147 138.621 112.12C138.683 112.093 138.738 112.054 138.784 112.006C138.83 111.957 138.865 111.9 138.889 111.837C138.912 111.774 138.923 111.707 138.92 111.641C138.917 111.574 138.9 111.508 138.872 111.448C138.843 111.387 138.802 111.333 138.752 111.289C135.721 108.436 132.317 106.007 128.633 104.068C130.288 103.308 131.876 102.411 133.379 101.385C137.13 103.225 140.586 105.615 143.631 108.476C144.093 108.928 144.798 108.186 144.316 107.748C141.33 104.946 137.958 102.585 134.304 100.736C135.496 99.8507 136.613 98.8691 137.644 97.8008C141.124 99.3521 144.404 101.317 147.413 103.653C147.466 103.693 147.526 103.722 147.59 103.738C147.653 103.755 147.72 103.759 147.785 103.75C147.85 103.741 147.913 103.72 147.97 103.686C148.027 103.653 148.077 103.609 148.117 103.556C148.157 103.504 148.186 103.444 148.203 103.38C148.219 103.316 148.223 103.25 148.214 103.185C148.205 103.119 148.184 103.056 148.15 102.999C148.117 102.942 148.073 102.893 148.02 102.853C145.042 100.543 141.805 98.5865 138.376 97.0218C139.331 95.955 140.193 94.8089 140.953 93.5958C146.971 95.4908 152.693 98.2193 157.953 101.702C155.118 103.273 142.453 113.502 137.486 117.123C135.459 118.609 110.229 139.01 110.125 139.12V139.122ZM116.603 105.316C115.652 104.701 114.172 107.23 113.86 107.893C114.142 106.78 114.771 105.785 115.654 105.052C115.751 104.97 115.814 104.855 115.829 104.729C115.845 104.603 115.813 104.476 115.74 104.373C115.666 104.269 115.557 104.197 115.433 104.171C115.309 104.144 115.18 104.165 115.07 104.23C115.343 104.065 115.63 103.926 115.927 103.812C116.028 103.773 116.113 103.702 116.171 103.611C116.228 103.519 116.254 103.412 116.245 103.304C116.237 103.197 116.193 103.095 116.121 103.014C116.05 102.933 115.954 102.878 115.848 102.856C117.61 102.045 119.048 103.756 119.322 105.313C117.902 106.016 116.656 107.027 115.674 108.272C115.811 107.438 116.146 106.649 116.652 105.972C116.725 105.875 116.76 105.754 116.75 105.633C116.741 105.512 116.688 105.398 116.6 105.314L116.603 105.316ZM111.816 151.259L111.456 146.141C114.229 143.639 117.209 141.377 120.365 139.381C120.477 139.31 120.556 139.197 120.585 139.067C120.614 138.938 120.59 138.802 120.519 138.69C120.448 138.578 120.335 138.499 120.205 138.471C120.076 138.442 119.94 138.466 119.828 138.537C116.847 140.428 114.018 142.55 111.368 144.884L111.237 143.019L135.69 123.058C135.741 123.016 135.783 122.965 135.815 122.907C135.846 122.849 135.865 122.786 135.872 122.721C135.878 122.655 135.872 122.589 135.853 122.526C135.834 122.463 135.803 122.405 135.761 122.354C135.72 122.303 135.669 122.261 135.611 122.23C135.553 122.198 135.489 122.179 135.424 122.172C135.359 122.166 135.293 122.172 135.23 122.191C135.167 122.21 135.108 122.241 135.057 122.283L111.151 141.8L111.015 139.865C123.868 129.923 124.441 127.951 146.903 111.233C149.548 109.176 155.437 104.378 158.284 102.633C157.989 104.335 157.836 106.059 157.827 107.787L145.074 118.13C144.994 118.195 144.936 118.283 144.908 118.383C144.88 118.482 144.884 118.588 144.919 118.685C144.953 118.782 145.017 118.866 145.101 118.926C145.185 118.986 145.286 119.018 145.389 119.018C145.657 119.018 144.698 119.718 157.789 109.11C157.769 109.684 157.75 110.155 157.733 110.239C156.782 111.409 120.79 143.291 111.816 151.257V151.259ZM172.073 138.952L175.428 139.128C175.115 143.351 173.441 147.359 170.657 150.551C169.923 149.945 167.957 147.551 167.225 148.402C167.154 148.514 167.131 148.649 167.16 148.779C167.188 148.908 167.268 149.021 167.379 149.092C168.332 149.716 169.205 150.453 169.979 151.287C167.205 154.132 163.731 156.197 159.906 157.275L159.024 154.101C158.986 153.976 158.901 153.872 158.786 153.81C158.672 153.747 158.538 153.732 158.413 153.767C158.287 153.802 158.18 153.884 158.115 153.996C158.049 154.109 158.03 154.242 158.061 154.369L158.951 157.569C155.184 158.555 151.291 158.97 147.4 158.8L147.907 155.416C147.921 155.288 147.884 155.159 147.805 155.058C147.727 154.956 147.612 154.888 147.484 154.869C147.357 154.85 147.227 154.881 147.122 154.955C147.017 155.029 146.944 155.141 146.919 155.268L146.391 158.788C143.246 158.741 140.105 158.529 136.982 158.151C139.663 144.885 142.036 134.175 144.661 123.491C147.561 120.654 150.306 118.446 152.208 116.652C152.458 117.192 153.275 117.018 153.759 117.194C153.639 117.973 152.675 120.869 153.787 121.039C153.92 121.039 154.047 120.986 154.141 120.892C154.235 120.799 154.287 120.671 154.287 120.539C154.295 119.472 154.449 118.411 154.745 117.386C157.683 117.955 160.549 118.847 163.29 120.046L161.554 122.91C161.52 122.966 161.498 123.028 161.488 123.093C161.478 123.158 161.481 123.225 161.497 123.288C161.512 123.352 161.54 123.412 161.579 123.465C161.618 123.518 161.667 123.563 161.723 123.597C161.78 123.631 161.842 123.653 161.907 123.663C161.972 123.673 162.038 123.67 162.102 123.655C162.166 123.639 162.226 123.611 162.279 123.572C162.332 123.533 162.376 123.484 162.41 123.428L164.201 120.474C167.984 122.382 170.766 124.612 172.689 127.83L170.155 129.096C170.095 129.124 170.04 129.164 169.995 129.213C169.95 129.263 169.915 129.321 169.893 129.384C169.871 129.447 169.862 129.514 169.866 129.581C169.87 129.648 169.888 129.713 169.918 129.773C169.948 129.833 169.99 129.886 170.04 129.93C170.091 129.973 170.15 130.006 170.214 130.026C170.278 130.047 170.345 130.054 170.412 130.047C170.479 130.041 170.543 130.022 170.602 129.99L173.183 128.701C174.74 131.593 175.524 134.838 175.459 138.122L172.126 137.947C171.993 137.94 171.863 137.986 171.764 138.075C171.665 138.164 171.605 138.289 171.598 138.422C171.591 138.555 171.637 138.685 171.727 138.784C171.816 138.883 171.94 138.943 172.073 138.95V138.952Z" fill="black"/>
</svg>
