<svg width="170" height="177" viewBox="0 0 170 177" fill="none" xmlns="http://www.w3.org/2000/svg">
<path d="M5 63.5V32.2692C5 23.3462 11.2466 5.5 36.233 5.5C61.2193 5.5 58.5422 5.5 54.0804 5.5" stroke="#EB8D21" stroke-width="10"/>
<path d="M5 112.5V144.269C5 153.346 11.2466 171.5 36.233 171.5C61.2193 171.5 58.5422 171.5 54.0804 171.5" stroke="#EB8D21" stroke-width="10"/>
<path d="M165 63.5V32.2692C165 23.3462 158.753 5.5 133.767 5.5C108.781 5.5 111.458 5.5 115.92 5.5" stroke="#EB8D21" stroke-width="10"/>
<path d="M165 112.5V144.269C165 153.346 158.753 171.5 133.767 171.5C108.781 171.5 111.458 171.5 115.92 171.5" stroke="#EB8D21" stroke-width="10"/>
<mask id="path-5-outside-1_41_131" maskUnits="userSpaceOnUse" x="31.5" y="59" width="110" height="58" fill="black">
<rect fill="white" x="31.5" y="59" width="110" height="58"/>
<path d="M47.7 115C43.2333 114.467 39.7 113 37.1 110.6C34.5667 108.2 33.3 104.667 33.3 100V76.2C33.3 65.6667 38.6333 60.4 49.3 60.4C59.8333 60.4 65.1 65.5 65.1 75.7V101.9C65.1 106.1 67.0667 108.2 71 108.2H79.2C83.1333 108.2 85.1 106.1 85.1 101.9V76.2C85.1 71.0667 86.3 67.1667 88.7 64.5C91.1667 61.7667 95.0333 60.4 100.3 60.4C103.033 60.4 105.5 60.9667 107.7 62.1C109.9 63.1667 111.633 64.7 112.9 66.7C115.433 62.5 119.367 60.4 124.7 60.4C134.967 60.4 140.1 65.5 140.1 75.7V115H131.4V75.6C131.4 70.5333 129 68 124.2 68C119.333 68 116.9 70.6333 116.9 75.9V115H108.2V75.6C108.2 73.2667 107.567 71.4333 106.3 70.1C105.033 68.7 103.267 68 101 68C96.2 68 93.8 70.6333 93.8 75.9V101.7C93.8 110.567 89.1 115 79.7 115H70.5C61.1667 115 56.5 110.567 56.5 101.7V75.6C56.5 70.5333 54.1 68 49.3 68C44.4333 68 42 70.6333 42 75.9V99.6C42 104.533 44.5 107.4 49.5 108.2L47.7 115Z"/>
</mask>
<path d="M47.7 115C43.2333 114.467 39.7 113 37.1 110.6C34.5667 108.2 33.3 104.667 33.3 100V76.2C33.3 65.6667 38.6333 60.4 49.3 60.4C59.8333 60.4 65.1 65.5 65.1 75.7V101.9C65.1 106.1 67.0667 108.2 71 108.2H79.2C83.1333 108.2 85.1 106.1 85.1 101.9V76.2C85.1 71.0667 86.3 67.1667 88.7 64.5C91.1667 61.7667 95.0333 60.4 100.3 60.4C103.033 60.4 105.5 60.9667 107.7 62.1C109.9 63.1667 111.633 64.7 112.9 66.7C115.433 62.5 119.367 60.4 124.7 60.4C134.967 60.4 140.1 65.5 140.1 75.7V115H131.4V75.6C131.4 70.5333 129 68 124.2 68C119.333 68 116.9 70.6333 116.9 75.9V115H108.2V75.6C108.2 73.2667 107.567 71.4333 106.3 70.1C105.033 68.7 103.267 68 101 68C96.2 68 93.8 70.6333 93.8 75.9V101.7C93.8 110.567 89.1 115 79.7 115H70.5C61.1667 115 56.5 110.567 56.5 101.7V75.6C56.5 70.5333 54.1 68 49.3 68C44.4333 68 42 70.6333 42 75.9V99.6C42 104.533 44.5 107.4 49.5 108.2L47.7 115Z" fill="#EB8D21"/>
<path d="M47.7 115L47.5814 115.993L48.4443 116.096L48.6667 115.256L47.7 115ZM37.1 110.6L36.4122 111.326L36.4217 111.335L37.1 110.6ZM88.7 64.5L87.9576 63.83L87.9567 63.831L88.7 64.5ZM107.7 62.1L107.242 62.989L107.253 62.9945L107.264 62.9998L107.7 62.1ZM112.9 66.7L112.055 67.2351L112.921 68.6017L113.756 67.2165L112.9 66.7ZM140.1 115V116H141.1V115H140.1ZM131.4 115H130.4V116H131.4V115ZM116.9 115V116H117.9V115H116.9ZM108.2 115H107.2V116H108.2V115ZM106.3 70.1L105.558 70.7709L105.567 70.7799L105.575 70.7887L106.3 70.1ZM49.5 108.2L50.4667 108.456L50.7496 107.387L49.658 107.213L49.5 108.2ZM47.8186 114.007C43.504 113.492 40.1861 112.088 37.7783 109.865L36.4217 111.335C39.2139 113.912 42.9627 115.441 47.5814 115.993L47.8186 114.007ZM37.7877 109.874C35.5143 107.72 34.3 104.488 34.3 100H32.3C32.3 104.845 33.619 108.68 36.4123 111.326L37.7877 109.874ZM34.3 100V76.2H32.3V100H34.3ZM34.3 76.2C34.3 71.0907 35.5924 67.4417 38.0026 65.0615C40.4152 62.6791 44.1177 61.4 49.3 61.4V59.4C43.8157 59.4 39.5181 60.7542 36.5974 63.6385C33.6743 66.525 32.3 70.776 32.3 76.2H34.3ZM49.3 61.4C54.4204 61.4 58.0756 62.6399 60.4544 64.9434C62.8271 67.241 64.1 70.7625 64.1 75.7H66.1C66.1 70.4375 64.7396 66.309 61.8456 63.5066C58.9577 60.7101 54.7129 59.4 49.3 59.4V61.4ZM64.1 75.7V101.9H66.1V75.7H64.1ZM64.1 101.9C64.1 104.138 64.6228 106.003 65.8451 107.309C67.079 108.626 68.8618 109.2 71 109.2V107.2C69.2049 107.2 68.0377 106.724 67.3049 105.941C66.5606 105.147 66.1 103.862 66.1 101.9H64.1ZM71 109.2H79.2V107.2H71V109.2ZM79.2 109.2C81.3382 109.2 83.121 108.626 84.3549 107.309C85.5772 106.003 86.1 104.138 86.1 101.9H84.1C84.1 103.862 83.6394 105.147 82.8951 105.941C82.1623 106.724 80.9951 107.2 79.2 107.2V109.2ZM86.1 101.9V76.2H84.1V101.9H86.1ZM86.1 76.2C86.1 71.2082 87.2676 67.5863 89.4433 65.169L87.9567 63.831C85.3324 66.747 84.1 70.9251 84.1 76.2H86.1ZM89.4424 65.17C91.6495 62.7243 95.1917 61.4 100.3 61.4V59.4C94.875 59.4 90.6838 60.8091 87.9576 63.83L89.4424 65.17ZM100.3 61.4C102.891 61.4 105.198 61.936 107.242 62.989L108.158 61.211C105.802 59.9974 103.176 59.4 100.3 59.4V61.4ZM107.264 62.9998C109.302 63.9881 110.891 65.3976 112.055 67.2351L113.745 66.1649C112.375 64.0024 110.498 62.3453 108.136 61.2002L107.264 62.9998ZM113.756 67.2165C116.09 63.3469 119.68 61.4 124.7 61.4V59.4C119.053 59.4 114.776 61.6531 112.044 66.1835L113.756 67.2165ZM124.7 61.4C129.681 61.4 133.232 62.6367 135.545 64.9344C137.857 67.231 139.1 70.7558 139.1 75.7H141.1C141.1 70.4442 139.777 66.319 136.955 63.5156C134.134 60.7133 129.986 59.4 124.7 59.4V61.4ZM139.1 75.7V115H141.1V75.7H139.1ZM140.1 114H131.4V116H140.1V114ZM132.4 115V75.6H130.4V115H132.4ZM132.4 75.6C132.4 72.9256 131.768 70.734 130.326 69.2123C128.875 67.6804 126.768 67 124.2 67V69C126.432 69 127.925 69.5862 128.874 70.5877C129.832 71.5994 130.4 73.2077 130.4 75.6H132.4ZM124.2 67C121.591 67 119.457 67.7094 117.991 69.2963C116.538 70.8683 115.9 73.1313 115.9 75.9H117.9C117.9 73.4021 118.479 71.715 119.459 70.6537C120.426 69.6072 121.942 69 124.2 69V67ZM115.9 75.9V115H117.9V75.9H115.9ZM116.9 114H108.2V116H116.9V114ZM109.2 115V75.6H107.2V115H109.2ZM109.2 75.6C109.2 73.0822 108.512 70.9767 107.025 69.4112L105.575 70.7887C106.621 71.89 107.2 73.4512 107.2 75.6H109.2ZM107.042 69.4291C105.548 67.7778 103.488 67 101 67V69C103.046 69 104.519 69.6222 105.558 70.7709L107.042 69.4291ZM101 67C98.4207 67 96.3097 67.7118 94.8609 69.3014C93.4282 70.8734 92.8 73.1343 92.8 75.9H94.8C94.8 73.399 95.3718 71.7099 96.3391 70.6486C97.2903 69.6049 98.7793 69 101 69V67ZM92.8 75.9V101.7H94.8V75.9H92.8ZM92.8 101.7C92.8 105.964 91.6728 108.982 89.5888 110.948C87.4939 112.924 84.2599 114 79.7 114V116C84.5401 116 88.3561 114.86 90.9612 112.402C93.5772 109.935 94.8 106.303 94.8 101.7H92.8ZM79.7 114H70.5V116H79.7V114ZM70.5 114C65.975 114 62.7671 112.924 60.6888 110.95C58.62 108.985 57.5 105.966 57.5 101.7H55.5C55.5 106.301 56.7133 109.932 59.3113 112.4C61.8996 114.859 65.6916 116 70.5 116V114ZM57.5 101.7V75.6H55.5V101.7H57.5ZM57.5 75.6C57.5 72.9256 56.8676 70.734 55.426 69.2123C53.9747 67.6804 51.8684 67 49.3 67V69C51.5316 69 53.0253 69.5862 53.974 70.5877C54.9324 71.5994 55.5 73.2077 55.5 75.6H57.5ZM49.3 67C46.6914 67 44.5569 67.7094 43.0906 69.2963C41.638 70.8683 41 73.1313 41 75.9H43C43 73.4021 43.5787 71.715 44.5594 70.6537C45.5264 69.6072 47.042 69 49.3 69V67ZM41 75.9V99.6H43V75.9H41ZM41 99.6C41 102.235 41.6701 104.443 43.1213 106.107C44.5696 107.768 46.688 108.763 49.342 109.187L49.658 107.213C47.312 106.837 45.6804 105.999 44.6287 104.793C43.5799 103.59 43 101.898 43 99.6H41ZM48.5333 107.944L46.7333 114.744L48.6667 115.256L50.4667 108.456L48.5333 107.944Z" fill="#EB8D21" mask="url(#path-5-outside-1_41_131)"/>
</svg>
