<svg width="200" height="200" viewBox="0 0 200 200" fill="none" xmlns="http://www.w3.org/2000/svg">
<path d="M122.571 58.0002C122.391 58.0002 122.201 58.1602 122.391 58.4902C123.771 61.132 124.909 63.8933 125.791 66.7402C125.881 67.0202 126.341 67.0602 126.231 66.5502C125.561 63.6126 124.419 60.8029 122.851 58.2302C122.761 58.0902 122.671 58.0002 122.571 58.0002Z" fill="black"/>
<path d="M114.38 53.3098C116.7 54.6498 122.17 57.7698 122.32 57.8598C122.357 57.8783 122.398 57.8823 122.437 57.8712C122.476 57.8601 122.51 57.8346 122.53 57.7998C122.53 57.7198 124.01 54.6898 124.72 53.1698C126.78 53.1698 128.79 53.0998 130.85 53.0498C132.773 55.471 134.524 58.0239 136.09 60.6898C136.118 60.7415 136.166 60.7801 136.222 60.7969C136.278 60.8138 136.339 60.8077 136.39 60.7798C136.442 60.752 136.481 60.7047 136.498 60.6484C136.514 60.5922 136.508 60.5315 136.48 60.4798C135.083 57.8421 133.446 55.3383 131.59 52.9998C137.66 52.8698 143.48 52.8498 147.04 47.8098C152.45 40.1198 146.09 28.9198 135.17 30.1598C135.936 29.0258 136.429 27.7298 136.609 26.3734C136.789 25.017 136.653 23.6373 136.21 22.3427C135.767 21.048 135.03 19.8737 134.057 18.9119C133.083 17.9502 131.9 17.2272 130.6 16.7998C129.102 16.2236 127.467 16.0984 125.898 16.4395C124.329 16.7807 122.895 17.5733 121.77 18.7198C121.51 15.0198 119.41 11.5998 115.85 9.0398C110.17 4.9998 101.79 3.74981 94.4804 5.89981C88.0004 7.83981 81.6104 12.9398 82.0004 19.9998C79.0995 18.0693 75.6592 17.1129 72.1782 17.2693C68.6972 17.4258 65.3564 18.6869 62.6404 20.8698C61.0184 22.1531 59.8154 23.8905 59.1849 25.8603C58.5544 27.8302 58.525 29.9432 59.1004 31.9298C53.4104 29.8198 46.9104 31.8598 43.8804 36.7498C42.7491 38.5963 42.2361 40.7555 42.4159 42.9135C42.5957 45.0716 43.4591 47.116 44.8804 48.7498C48.2504 52.4098 53.8804 52.9098 58.9504 53.0898C73.2204 53.5898 100.49 53.4598 114.38 53.3098ZM44.6004 37.1998C47.2804 32.8198 53.3804 30.3198 59.7404 32.7998C59.7672 32.8075 59.7955 32.8081 59.8226 32.8014C59.8497 32.7948 59.8746 32.7812 59.8948 32.762C59.915 32.7428 59.9298 32.7187 59.9378 32.692C59.9458 32.6653 59.9467 32.637 59.9404 32.6098L59.8504 32.3298C59.2626 30.3973 59.2737 28.3321 59.8824 26.4061C60.4911 24.48 61.6688 22.7835 63.2604 21.5398C65.9387 19.4466 69.2088 18.2513 72.6056 18.1238C76.0023 17.9964 79.3528 18.9432 82.1804 20.8298C82.3904 20.9798 82.4604 21.0698 82.5804 21.0098C82.7004 20.9498 82.6604 20.7998 82.6404 20.5698C82.1804 13.7398 88.2204 8.62981 94.7304 6.72981C105.73 3.51981 118.73 8.33981 120.9 17.1998C121.101 18.0323 121.211 18.8838 121.23 19.7398C121.23 19.8698 121.38 19.9498 121.5 19.8198C122.921 18.1904 124.922 17.1798 127.077 17.0029C129.231 16.826 131.37 17.4968 133.038 18.8726C134.706 20.2485 135.771 22.2207 136.006 24.3698C136.242 26.5188 135.63 28.6751 134.3 30.3798L134.11 30.6498C134.092 30.6734 134.081 30.702 134.08 30.7317C134.078 30.7615 134.085 30.7911 134.1 30.8169C134.115 30.8426 134.137 30.8633 134.164 30.8763C134.191 30.8893 134.221 30.894 134.25 30.8898C144.78 29.4998 151.62 39.8298 146.3 47.4098C142.84 52.3398 136.96 52.2298 131.05 52.4098C129.813 50.8749 128.476 49.4218 127.05 48.0598C127.82 46.3098 128.49 44.7498 129.05 43.2898C129.065 43.2537 129.066 43.2134 129.053 43.1766C129.04 43.1397 129.014 43.1089 128.98 43.0898C123.98 40.8098 119.19 38.7998 114.77 37.0898C114.738 37.0754 114.702 37.0735 114.669 37.0847C114.635 37.0958 114.607 37.119 114.59 37.1498C112.188 41.1331 109.989 45.2349 108 49.4398C107.987 49.4736 107.986 49.5108 107.997 49.5453C108.008 49.5798 108.03 49.6096 108.06 49.6298C109.47 50.4698 111.17 51.4698 113.22 52.6298C100.34 52.7898 73.2204 52.9498 58.9104 52.4698C54.9104 52.3198 48.7904 52.0998 45.3504 48.2398C44.0975 46.7039 43.3524 44.8168 43.218 42.8392C43.0837 40.8616 43.5667 38.8911 44.6004 37.1998ZM126.86 48.4698C128.098 49.6964 129.253 51.0025 130.32 52.3798L125 52.4998C125.66 51.1298 126.28 49.7798 126.86 48.4698ZM127 43.8998L121.79 54.8998L110 48.3998C111.77 45.1198 113.63 41.6998 115.33 38.9598C119.76 40.7098 125.44 43.1498 127 43.8998ZM148.86 132.71C146.48 132.43 143.86 135.21 141.92 138.01C144.483 131.528 145.76 124.609 145.68 117.64C145.6 114.83 145.14 109.84 142.96 107.93C139.96 105.31 136.5 110.27 134.54 113.69C135.992 109.197 136.606 104.475 136.35 99.7598C136.1 96.0798 135.01 90.3798 131.35 90.3798C128.52 90.3798 126.28 93.6398 125.11 95.7998C124.11 92.7998 119.77 80.6798 117.83 75.9598C114.66 68.3398 112.42 66.1498 104.68 67.7798C101.4 68.5098 88.3604 72.2898 85.0104 73.2498C75.9104 75.8698 67.3204 78.3498 63.5604 81.0898C62.2974 81.9168 61.3029 83.0942 60.699 84.4779C60.0951 85.8616 59.9079 87.3913 60.1604 88.8798C60.7304 93.2498 69.3204 121.63 72.0204 130.2C67.3904 135 64.4604 142.49 63.4104 145.5C60.8204 152.95 57.5204 167.18 64.4104 178.74C68.0278 184.702 73.6726 189.161 80.3104 191.3C80.0004 192.3 79.5804 193.52 79.1204 194.95C79.1144 194.973 79.1137 194.997 79.1184 195.021C79.123 195.044 79.1329 195.067 79.1473 195.086C79.1617 195.105 79.1803 195.121 79.2016 195.132C79.2229 195.143 79.2464 195.149 79.2704 195.15H79.6504C79.682 195.147 79.7122 195.136 79.7371 195.116C79.7621 195.096 79.7806 195.07 79.7904 195.04C80.3004 193.5 80.7404 192.14 81.0704 191.15C81.081 191.11 81.0837 191.069 81.0783 191.029C81.073 190.988 81.0597 190.949 81.0393 190.914C81.0189 190.879 80.9917 190.848 80.9592 190.823C80.9268 190.798 80.8898 190.78 80.8504 190.77C74.3334 188.758 68.7866 184.414 65.2704 178.57C60.2704 170.05 59.8104 157.79 64.1604 145.76C68.7504 133.13 74.7004 127.16 78.0004 128C80.8504 128.7 81.8004 134.2 80.6204 143.1C79.998 147.562 78.9534 151.955 77.5004 156.22C77.4777 156.279 77.4742 156.343 77.4904 156.404C77.5065 156.465 77.5415 156.52 77.5904 156.56C78.5904 157.37 80.3204 158.56 81.4904 159.4C82.7288 163.04 84.2363 166.583 86.0004 170C87.6204 172.86 89.3604 174.65 93.0604 174.73C96.4904 174.82 102.77 173.08 106.06 172.16C104.019 174.38 102.396 176.952 101.27 179.75C100.17 182.7 99.7404 187.03 102.16 189.52C102.219 189.578 102.298 189.611 102.38 189.611C102.463 189.611 102.542 189.578 102.6 189.52C102.659 189.461 102.692 189.382 102.692 189.3C102.692 189.217 102.659 189.138 102.6 189.08C100.54 186.75 101.07 182.75 102.15 180.08C103.422 177.124 105.105 174.364 107.15 171.88C117.86 168.88 131.2 164.13 133.15 163.32C136.47 161.96 139.33 160.55 140.66 157.17C142.36 152.84 139.66 145.98 139.34 143.55C141.07 140.34 145.4 133.07 148.71 133.47C152.23 133.9 151.71 142.16 151.57 143.8C150.14 159.18 140.57 176.72 120.57 189.8C119.4 190.56 119.3 190.64 119.32 190.8C119.52 192.3 119.73 193.8 119.93 195.06C119.935 195.096 119.953 195.129 119.981 195.153C120.008 195.177 120.044 195.19 120.08 195.19H120.54C120.562 195.19 120.583 195.186 120.603 195.177C120.622 195.168 120.64 195.155 120.654 195.139C120.668 195.123 120.679 195.104 120.685 195.083C120.692 195.063 120.693 195.041 120.69 195.02C120.56 193.9 120.39 192.56 120.18 190.95C129.55 185.47 141.83 174.35 148.3 159.51C150.475 154.549 151.826 149.266 152.3 143.87C152.6 141.34 152.94 133.18 148.86 132.71ZM104.74 68.4098C114.06 66.4098 115.04 69.8498 120.33 84.2398C130.62 112.24 139.05 144 140.23 150.24C142.03 159.72 136.74 161.51 127.13 164.75C123.01 166.14 116.61 168.42 107.74 170.97C89.0004 176.33 88.4004 175.74 82.4004 159.69C81.2304 156.56 80.3404 154.12 79.5204 151.76C80.2913 149.042 80.899 146.28 81.3404 143.49C82.6904 147.91 88.4004 167.11 92.0704 169.11C94.0104 170.19 96.8404 169.47 99.1204 168.89C103.43 167.8 133.33 159.31 135.67 156.01C136.055 155.459 136.276 154.811 136.31 154.14C136.57 149.34 128.15 121.19 126.14 115.26L128.99 114.07C129.026 114.054 129.053 114.026 129.068 113.991C129.083 113.955 129.084 113.916 129.07 113.88C124.68 101.29 120.88 90.1998 115.27 77.4898C115.255 77.4547 115.227 77.4269 115.191 77.412C115.156 77.3971 115.116 77.3963 115.08 77.4098C104.67 81.3298 86.1504 88.0998 75.8804 92.4098C75.6004 92.5298 75.7704 92.1798 80.0004 103.58C77.7504 104.58 74.6904 106.17 73.0004 107.03C72.9453 107.06 72.9034 107.109 72.8831 107.168C72.8627 107.228 72.8653 107.292 72.8904 107.35C79.1004 120.9 81.4704 127.11 88.3704 139.51C88.4304 139.63 88.5804 139.7 88.8004 139.62C93.3204 138.05 103.57 133.07 105.8 132.02C112.73 128.78 117.8 125.65 122.3 123.28C122.334 123.257 122.361 123.225 122.379 123.188C122.396 123.151 122.404 123.111 122.4 123.07C122.41 123.041 122.41 123.009 122.4 122.98C121.91 121.68 120.91 119.23 120.14 117.72L125.54 115.46C127.02 120.46 135.83 149.36 135.54 154.08C135.512 154.631 135.332 155.164 135.02 155.62C132.9 158.62 101.87 167.53 98.8004 168.3C96.6904 168.82 94.0704 169.49 92.3404 168.53C89.4204 166.92 85.2804 153.9 82.2604 144.4C81.9804 143.51 81.7004 142.66 81.4404 141.84C82.1204 136.41 82.1604 126.22 76.7604 127.11C73.5004 115.33 66.4904 93.4898 65.8204 88.4998C65.6643 87.8171 65.7409 87.1017 66.0381 86.4676C66.3352 85.8334 66.8359 85.3167 67.4604 84.9998C72.0704 81.8598 103.14 72.6398 107.35 72.4698C109.48 72.3698 110.29 73.2198 111.5 75.6798C112.29 77.3198 112.18 77.3398 112.39 77.4298C112.6 77.5198 112.94 77.3198 112.75 76.8998C112.56 76.4798 112.42 76.1998 112.05 75.4098C110.98 73.1498 110.19 71.7698 107.49 71.8798C105.19 71.9598 94.1804 74.8798 92.6004 75.3498C87.6604 76.7198 70.6004 82.0698 67.1004 84.4698C66.3731 84.8544 65.7911 85.4658 65.4428 86.2111C65.0945 86.9565 64.9988 87.7952 65.1704 88.5998C65.8704 94.0798 74.5304 121.92 76.2404 127.29C74.8309 127.8 73.5579 128.628 72.5204 129.71C71.5204 126.44 61.3304 92.1898 60.8604 88.7998C60.5833 87.4329 60.7209 86.0145 61.2554 84.7263C61.7899 83.4381 62.697 82.339 63.8604 81.5698C69.1004 77.7598 102.12 68.9998 104.74 68.4098ZM114.66 100.41C114.63 100.435 114.606 100.467 114.59 100.504C114.574 100.54 114.568 100.58 114.57 100.62L114.67 101.39L114.39 100.89C114.31 100.76 114.22 100.76 114.08 100.79C113.639 100.923 113.173 100.95 112.719 100.868C112.265 100.787 111.837 100.599 111.47 100.32L111.05 98.9998C111.681 99.0561 112.315 98.9409 112.885 98.6662C113.456 98.3916 113.941 97.9678 114.29 97.4398L115.11 98.5998C115.205 98.9093 115.214 99.2389 115.134 99.5527C115.055 99.8666 114.891 100.153 114.66 100.38V100.41ZM113.84 103.05C113.141 103.153 112.428 102.993 111.84 102.6C111.602 102.369 111.432 102.077 111.349 101.756C111.266 101.435 111.273 101.097 111.37 100.78C112.078 101.273 112.945 101.484 113.8 101.37C113.71 101.911 113.723 102.464 113.84 103V103.05ZM107.06 96.1698C107.027 96.2081 106.981 96.233 106.93 96.2398C106.806 96.2383 106.685 96.2087 106.574 96.1533C106.463 96.0979 106.366 96.018 106.29 95.9198C106.168 95.8033 106.078 95.6579 106.027 95.4971C105.976 95.3362 105.967 95.1652 106 94.9998C106.09 94.8198 106.29 94.8498 106.48 94.9398C106.64 95.3554 106.834 95.7568 107.06 96.1398V96.1698ZM109.8 88.0998C112.49 88.0998 114.71 91.2898 114.68 94.3798C114.388 93.8763 113.922 93.4968 113.369 93.3127C112.817 93.1286 112.216 93.1524 111.68 93.3798C111.72 93.2759 111.75 93.1689 111.77 93.0598C111.788 93.0068 111.783 92.949 111.758 92.8993C111.732 92.8496 111.688 92.812 111.635 92.7948C111.582 92.7776 111.525 92.7821 111.475 92.8074C111.425 92.8327 111.388 92.8768 111.37 92.9298C111.321 93.0599 111.257 93.184 111.18 93.2998C111.133 93.3823 111.059 93.4459 110.97 93.4798C110.82 93.5298 110.62 93.3598 110.5 93.1898C110.188 92.701 109.98 92.1528 109.89 91.5798C109.88 91.5332 109.854 91.4914 109.817 91.4615C109.78 91.4316 109.733 91.4154 109.685 91.4154C109.638 91.4154 109.591 91.4316 109.554 91.4615C109.517 91.4914 109.491 91.5332 109.48 91.5798C109.48 92.3898 109.83 93.5798 110.55 93.8898C108.89 94.9598 108.55 96.2998 109.01 97.5398C105 94.2698 106.21 87.9998 109.8 88.0698V88.0998ZM112.51 94.4698C112.702 94.4565 112.894 94.4858 113.073 94.5556C113.252 94.6254 113.413 94.7341 113.545 94.8737C113.677 95.0133 113.777 95.1804 113.836 95.363C113.896 95.5456 113.915 95.7392 113.89 95.9298C113.76 97.5898 111.47 98.7198 110.49 97.5698C109.51 96.4198 110.86 94.4398 112.51 94.4398V94.4698ZM114.62 91.4698C114.655 91.3572 114.725 91.2588 114.82 91.1898C115.16 91.0198 115.39 91.6098 115.41 91.9998C115.43 92.3898 115.29 92.7198 115 92.6998C114.908 92.2832 114.781 91.8751 114.62 91.4798V91.4698ZM115.57 98.6798C116.57 98.7898 117.15 100.16 116.26 101.8C116.108 101.248 115.75 100.776 115.26 100.48C115.431 100.218 115.547 99.9247 115.601 99.6169C115.654 99.309 115.644 98.9935 115.57 98.6898V98.6798ZM106.9 102.49C105.3 101.19 103.6 101.26 102.99 100.57C102.925 100.476 102.884 100.369 102.87 100.256C102.856 100.143 102.87 100.028 102.911 99.9217C102.951 99.8153 103.017 99.7204 103.102 99.6452C103.187 99.5699 103.29 99.5166 103.4 99.4898C104.348 99.1995 105.361 99.1976 106.31 99.4843C107.259 99.7709 108.102 100.333 108.73 101.1C109.48 101.978 110.045 102.998 110.39 104.1C110.725 105.15 110.946 106.233 111.05 107.33L109.05 108.45C109.226 107.357 109.12 106.238 108.744 105.197C108.368 104.156 107.734 103.228 106.9 102.5V102.49ZM107.23 110.35C107.185 110.384 107.156 110.435 107.148 110.492C107.141 110.548 107.156 110.605 107.19 110.65C107.225 110.695 107.276 110.724 107.332 110.732C107.388 110.739 107.445 110.724 107.49 110.69C107.731 110.513 107.949 110.308 108.14 110.08C108.42 110.54 108.87 111.23 109.14 111.63C109.07 113.51 106.62 114.28 105.36 113.25C105.27 112.82 105.06 112.08 104.88 111.54H105.48C105.53 111.529 105.574 111.502 105.605 111.463C105.637 111.424 105.654 111.375 105.654 111.325C105.654 111.275 105.637 111.226 105.605 111.187C105.574 111.148 105.53 111.12 105.48 111.11C104.9 111.168 104.314 111.094 103.767 110.893C103.22 110.693 102.725 110.37 102.32 109.95C101.13 108.61 101.19 106.12 101.78 104.42C101.88 104.411 101.981 104.411 102.08 104.42C102.139 104.433 102.199 104.424 102.252 104.396C102.305 104.368 102.345 104.322 102.367 104.267C102.389 104.211 102.39 104.15 102.37 104.094C102.351 104.037 102.312 103.99 102.26 103.96C102.168 103.913 102.071 103.876 101.97 103.85C102.33 103.037 102.637 102.202 102.89 101.35C102.94 101.09 102.89 101.09 103.02 101.19C103.86 101.77 106.31 101.78 107.7 104.13C108.93 106.2 109 108.81 107.23 110.36V110.35ZM102.41 101.27C102.12 102.27 101.82 102.77 101.41 103.86C101.23 103.901 101.062 103.985 100.921 104.105C100.78 104.226 100.67 104.378 100.6 104.55C100.569 104.608 100.561 104.677 100.58 104.741C100.599 104.804 100.642 104.858 100.7 104.89C100.759 104.922 100.827 104.929 100.891 104.91C100.955 104.891 101.009 104.848 101.04 104.79C101.065 104.743 101.095 104.699 101.13 104.66C100.74 105.917 100.688 107.256 100.98 108.54C101.118 109.145 101.403 109.707 101.809 110.176C102.215 110.645 102.731 111.007 103.31 111.23L101.57 111.97C99.7704 110.14 98.1604 106.62 98.5704 103.97C98.9204 101.88 100.73 100.32 101.82 100.23C102.38 100.18 102.53 100.78 102.41 101.28V101.27ZM94.2704 106.27C94.5956 107.187 95.0797 108.04 95.7004 108.79C95.3804 110.79 93.5704 111.61 91.6004 110.58C91.4194 109.574 91.0819 108.602 90.6004 107.7C90.5834 107.67 90.5605 107.644 90.5329 107.623C90.5054 107.602 90.4739 107.588 90.4404 107.58C89.9304 107.49 88.1804 106.87 86.9804 103C85.4804 98.1398 89.3604 98.7698 90.3804 97.1598C91.3204 98.2798 93.2504 98.3598 94.0304 100.61C94.6622 102.374 94.7459 104.287 94.2704 106.1C94.2529 106.152 94.2529 106.208 94.2704 106.26V106.27ZM91.4504 110.95C93.5204 112.21 95.8604 111.26 96.1404 108.95L97.1404 108.88C97.1078 109.594 96.8781 110.285 96.4768 110.876C96.0755 111.467 95.5183 111.936 94.867 112.23C94.2157 112.524 93.4956 112.632 92.7866 112.542C92.0777 112.452 91.4075 112.167 90.8504 111.72C91.0642 111.471 91.2645 111.21 91.4504 110.94V110.95ZM115.45 98.1998L114.57 96.9998C115.138 95.8298 115.323 94.511 115.1 93.2298C115.64 93.2298 115.95 92.5298 115.91 91.9998C115.85 91.0998 115.25 90.4298 114.58 90.7798L114.35 90.1198C115 89.5998 115.02 88.3998 114.19 88.1798C114.365 87.9409 114.46 87.6531 114.461 87.3573C114.463 87.0615 114.372 86.7726 114.201 86.5315C114.029 86.2904 113.786 86.1093 113.506 86.0139C113.226 85.9185 112.923 85.9136 112.64 85.9998C112.615 85.6487 112.473 85.3163 112.235 85.0567C111.997 84.7971 111.678 84.6255 111.331 84.5699C110.983 84.5143 110.627 84.5779 110.32 84.7503C110.013 84.9228 109.774 85.194 109.64 85.5198C109.497 85.3634 109.313 85.2489 109.11 85.1889C108.906 85.1288 108.69 85.1253 108.484 85.1787C108.279 85.2321 108.091 85.3405 107.943 85.4922C107.794 85.6439 107.69 85.8332 107.64 86.0398C106.45 84.8798 104.37 86.2598 104.9 87.9798C103.01 87.8898 102.44 90.8398 104.17 91.6298C104.003 91.8516 103.906 92.1189 103.892 92.3968C103.879 92.6746 103.95 92.9499 104.096 93.1867C104.242 93.4235 104.456 93.6106 104.71 93.7236C104.964 93.8366 105.247 93.8701 105.52 93.8198L105.88 94.4998C104.88 94.9398 105.77 96.8598 106.88 96.7598C107.014 96.7399 107.141 96.6885 107.25 96.6098C107.982 97.7581 109.11 98.5979 110.42 98.9698L110.86 100.34C110.38 100.64 109.92 100.96 109.47 101.34C106.98 98.0198 102.73 98.4698 102.33 99.9798C102.076 99.8782 101.801 99.8405 101.529 99.8702C101.257 99.8998 100.997 99.9958 100.77 100.15C100.088 100.532 99.4941 101.054 99.0272 101.681C98.5602 102.308 98.2308 103.027 98.0604 103.79C96.9817 102.829 96.3036 101.497 96.1604 100.06C95.9704 97.5498 95.5604 94.8098 93.0904 94.2098C92.6197 94.1228 92.136 94.1338 91.6697 94.2422C91.2034 94.3506 90.7645 94.554 90.3804 94.8398C89.4081 94.394 88.3098 94.305 87.2784 94.5885C86.2469 94.8719 85.3484 95.5097 84.7404 96.3898C83.0904 98.4598 83.3604 100.93 85.5704 103.94C87.2804 106.28 85.2404 110.28 88.8804 112.82C88.4804 113.18 88.0604 113.56 87.6104 114.03C86.1704 110.38 81.2404 97.3998 80.0904 94.4498C91.3604 89.7998 101.81 85.9998 113.28 81.7998C115.79 87.3698 117.98 92.6098 119.97 97.7998C118.441 97.7753 116.913 97.906 115.41 98.1898L115.45 98.1998ZM87.9504 114.44C88.8804 113.44 89.7204 112.8 90.5204 112.03C91.1323 112.581 91.8918 112.941 92.7056 113.067C93.5194 113.193 94.3521 113.078 95.1017 112.737C95.8513 112.396 96.4852 111.844 96.9255 111.148C97.3658 110.452 97.5934 109.643 97.5804 108.82L98.8904 108.72C99.4519 110.146 100.28 111.453 101.33 112.57C101.38 112.601 101.437 112.617 101.495 112.617C101.554 112.617 101.611 112.601 101.66 112.57L104 111.5C104.027 111.507 104.054 111.507 104.08 111.5H104.4C104.49 111.89 104.65 112.5 104.87 113.13C101.87 114.77 100.52 116.95 100.8 119.78C100.802 119.804 100.809 119.828 100.821 119.849C100.833 119.87 100.851 119.887 100.871 119.9C100.892 119.913 100.915 119.92 100.94 119.922C100.964 119.924 100.988 119.92 101.01 119.91C104.95 118.28 117.19 113.35 117.52 113.23C117.63 113.23 117.66 113.12 117.58 113.03C115.65 110.67 113.23 110.11 109.49 111.15C109.24 110.72 108.84 110.1 108.49 109.65C108.587 109.499 108.674 109.342 108.75 109.18L111.53 107.78C111.583 107.751 111.627 107.707 111.655 107.654C111.684 107.6 111.696 107.54 111.69 107.48C111.548 105.421 110.917 103.426 109.85 101.66C110.2 101.39 110.56 101.14 110.92 100.9C110.55 102.9 112.24 103.81 114.21 103.48C114.242 103.473 114.273 103.459 114.299 103.44C114.326 103.421 114.348 103.397 114.365 103.369C114.382 103.341 114.393 103.309 114.397 103.277C114.402 103.244 114.399 103.211 114.39 103.18C114.238 102.651 114.194 102.096 114.26 101.55L114.84 102.4C114.863 102.436 114.898 102.464 114.938 102.478C114.978 102.492 115.022 102.492 115.063 102.479C115.104 102.465 115.138 102.437 115.161 102.401C115.184 102.365 115.195 102.322 115.19 102.28L115.1 101C115.551 101.334 115.864 101.821 115.98 102.37C115.989 102.405 116.007 102.437 116.032 102.463C116.057 102.488 116.089 102.507 116.124 102.516C116.158 102.525 116.195 102.525 116.23 102.515C116.264 102.505 116.296 102.486 116.32 102.46C117.55 101.17 117.41 99.1798 116.39 98.5098C117.662 98.2936 118.951 98.1965 120.24 98.2198C122.17 103.22 123.7 107.54 124.92 111.22C116.92 114.34 91.9904 124.3 91.9904 124.3C90.5404 120.98 89.1904 117.68 87.8904 114.42L87.9504 114.44ZM90.4104 129.44C90.4259 129.475 90.4542 129.503 90.4895 129.518C90.5248 129.532 90.5645 129.533 90.6004 129.52C98.4604 126.73 110.77 121.72 119.77 117.99C120.24 119.27 121.46 122.11 121.86 122.99C115.76 126.11 106.67 131.09 88.8604 139.09C80.6104 123 79.2404 119 73.5004 107.38C73.5004 107.38 79.3504 104.53 80.2104 104.09C83.4104 112.57 86.6004 121.07 90.3704 129.39L90.4104 129.44ZM132.53 119C134.39 115 139.19 105.54 142.45 108.47C144.45 110.26 144.78 115.47 144.82 117.62C144.864 126.24 142.91 134.752 139.11 142.49C138.38 139.68 136.05 130.78 132.53 119ZM132.22 117.95C130.22 111.29 127.63 103.11 125.37 96.5198C127.02 93.8198 129.02 91.0798 131.37 91.0798C134.52 91.0798 135.42 96.6298 135.59 99.7698C135.799 106.019 134.649 112.239 132.22 118V117.95ZM81.0004 158.15C80.2704 157.6 79.0904 156.73 78.1504 156.1C78.5404 154.97 78.8704 153.87 79.1504 152.81C79.7904 154.58 80.3704 156.29 81.0004 158.15Z" fill="black"/>
<path d="M103.24 145L105.12 146.06C105.177 146.092 105.239 146.112 105.303 146.12C105.368 146.128 105.433 146.123 105.495 146.105C105.557 146.087 105.616 146.057 105.666 146.017C105.717 145.977 105.759 145.927 105.79 145.87L106.94 143.7L109.55 151.7C109.587 151.812 109.658 151.909 109.753 151.977C109.848 152.046 109.963 152.082 110.08 152.08C110.875 151.902 111.652 151.651 112.4 151.33C112.541 151.282 112.657 151.181 112.722 151.048C112.788 150.914 112.798 150.761 112.75 150.62L110.08 142.91L111.79 143.73C111.905 143.784 112.036 143.792 112.157 143.753C112.278 143.714 112.379 143.631 112.44 143.52L113.54 141.52C113.572 141.463 113.591 141.399 113.597 141.334C113.603 141.269 113.596 141.203 113.577 141.141C113.557 141.078 113.525 141.02 113.483 140.971C113.441 140.921 113.389 140.88 113.33 140.85L107 137.83C106.846 137.758 106.67 137.748 106.509 137.804C106.348 137.86 106.216 137.977 106.14 138.13L103 144.32C102.97 144.38 102.952 144.446 102.948 144.513C102.944 144.58 102.953 144.648 102.976 144.711C102.998 144.775 103.033 144.833 103.079 144.883C103.124 144.932 103.179 144.972 103.24 145Z" fill="black"/>
<path d="M101 160.73C101.057 160.891 101.175 161.024 101.328 161.101C101.481 161.177 101.657 161.191 101.82 161.14L124.95 153.75C125.113 153.697 125.249 153.583 125.329 153.432C125.409 153.281 125.428 153.105 125.38 152.94L123 145.13C122.976 145.048 122.936 144.971 122.882 144.905C122.829 144.838 122.762 144.783 122.687 144.742C122.612 144.701 122.529 144.675 122.444 144.666C122.359 144.657 122.273 144.666 122.19 144.69L120.24 145.27C120.157 145.294 120.079 145.335 120.012 145.389C119.945 145.444 119.889 145.511 119.848 145.587C119.807 145.664 119.781 145.748 119.773 145.834C119.765 145.92 119.774 146.007 119.8 146.09L121.27 151.03C121.295 151.12 121.284 151.217 121.24 151.299C121.195 151.381 121.12 151.442 121.03 151.47L103.6 157.05C103.51 157.079 103.413 157.07 103.328 157.027C103.244 156.984 103.18 156.91 103.15 156.82L101.36 151.55C101.333 151.468 101.29 151.393 101.234 151.328C101.177 151.263 101.108 151.21 101.031 151.171C100.954 151.133 100.87 151.111 100.784 151.106C100.698 151.1 100.612 151.112 100.53 151.14L98.6005 151.79C98.4369 151.847 98.3023 151.966 98.2256 152.121C98.1489 152.276 98.1363 152.456 98.1905 152.62L101 160.73ZM105 106.76C105.048 106.739 105.087 106.701 105.109 106.654C105.132 106.607 105.137 106.554 105.124 106.503C105.111 106.453 105.08 106.409 105.037 106.379C104.994 106.349 104.942 106.335 104.89 106.34C104.729 106.376 104.562 106.376 104.4 106.34C104.19 106.27 104.33 106.05 104.48 105.85C104.5 105.832 104.515 105.811 104.526 105.787C104.537 105.762 104.542 105.736 104.542 105.71C104.542 105.684 104.537 105.658 104.526 105.634C104.515 105.61 104.5 105.588 104.48 105.57C104.39 105.5 104.24 105.57 104.1 105.64C104.021 105.692 103.952 105.76 103.9 105.84C103.848 105.919 103.812 106.009 103.796 106.103C103.78 106.197 103.784 106.293 103.807 106.386C103.83 106.478 103.872 106.565 103.93 106.64C104.075 106.767 104.255 106.847 104.447 106.868C104.638 106.89 104.831 106.852 105 106.76ZM105.78 106.92C105.759 107.089 105.697 107.25 105.599 107.389C105.502 107.529 105.372 107.642 105.22 107.72C104.9 107.849 104.541 107.849 104.22 107.72C104.162 107.688 104.094 107.681 104.03 107.7C103.966 107.718 103.912 107.762 103.88 107.82C103.849 107.878 103.841 107.947 103.86 108.011C103.879 108.075 103.922 108.128 103.98 108.16C104.235 108.324 104.532 108.411 104.835 108.411C105.139 108.411 105.436 108.324 105.69 108.16C105.899 108.031 106.067 107.847 106.176 107.628C106.286 107.409 106.332 107.164 106.31 106.92C106.31 106.85 106.283 106.782 106.233 106.733C106.183 106.683 106.116 106.655 106.045 106.655C105.975 106.655 105.908 106.683 105.858 106.733C105.808 106.782 105.78 106.85 105.78 106.92ZM105.31 103.81C104.87 103.99 105.14 104.81 105.61 104.81C105.677 104.811 105.743 104.791 105.798 104.753C105.854 104.716 105.896 104.662 105.92 104.6C106.09 104.25 105.68 103.66 105.31 103.81ZM102.69 105.23C102.33 104.97 101.97 105.34 102.17 105.84C102.28 106.09 102.53 106.3 102.76 106.2C102.99 106.1 103 105.46 102.69 105.23ZM104.47 103.18C104.567 103.011 104.719 102.881 104.9 102.81C105.093 102.755 105.298 102.755 105.49 102.81C105.55 102.828 105.614 102.824 105.67 102.797C105.726 102.77 105.771 102.724 105.794 102.666C105.818 102.609 105.82 102.545 105.799 102.486C105.777 102.428 105.735 102.379 105.68 102.35C105.538 102.268 105.379 102.218 105.215 102.203C105.051 102.187 104.886 102.207 104.731 102.261C104.575 102.315 104.433 102.402 104.314 102.516C104.195 102.629 104.102 102.767 104.04 102.92C104.006 102.977 103.996 103.046 104.012 103.11C104.027 103.175 104.068 103.231 104.125 103.265C104.183 103.3 104.251 103.31 104.316 103.294C104.38 103.278 104.436 103.237 104.47 103.18ZM92.9005 104.22C92.6405 104.15 92.6405 104.44 92.2605 104.74C92.0513 104.907 91.7945 105.004 91.5268 105.017C91.2592 105.029 90.9945 104.957 90.7705 104.81C90.7201 104.766 90.6544 104.744 90.5878 104.749C90.5212 104.754 90.4592 104.785 90.4155 104.835C90.3717 104.885 90.3498 104.951 90.3545 105.018C90.3591 105.084 90.3901 105.146 90.4405 105.19C90.6334 105.386 90.8739 105.528 91.1385 105.602C91.403 105.676 91.6823 105.68 91.9489 105.614C92.2155 105.547 92.46 105.412 92.6585 105.222C92.8569 105.032 93.0024 104.794 93.0805 104.53C93.0895 104.498 93.092 104.464 93.0878 104.431C93.0836 104.398 93.0727 104.366 93.056 104.337C93.0392 104.308 93.0168 104.283 92.9901 104.263C92.9634 104.243 92.9329 104.228 92.9005 104.22ZM91.5805 103.82C91.6354 103.791 91.6775 103.742 91.6985 103.684C91.7196 103.625 91.7181 103.561 91.6944 103.504C91.6707 103.446 91.6264 103.4 91.5702 103.373C91.514 103.347 91.4499 103.342 91.3905 103.36C90.8905 103.6 90.7005 102.51 90.7005 101.96C90.7079 101.924 90.7071 101.886 90.6982 101.85C90.6893 101.814 90.6725 101.781 90.6491 101.752C90.6256 101.723 90.5961 101.7 90.5626 101.684C90.5291 101.669 90.4925 101.66 90.4555 101.66C90.4184 101.66 90.3818 101.669 90.3484 101.684C90.3149 101.7 90.2854 101.723 90.2619 101.752C90.2385 101.781 90.2217 101.814 90.2128 101.85C90.2039 101.886 90.2031 101.924 90.2105 101.96C90.2105 103 90.6105 104.19 91.5805 103.82ZM89.2905 100.27C89.2905 100.02 88.9005 99.9301 88.6705 99.9501C88.4298 99.9933 88.2102 100.115 88.0457 100.296C87.8811 100.476 87.7809 100.706 87.7605 100.95C87.7562 100.985 87.7595 101.021 87.7702 101.055C87.7808 101.089 87.7985 101.12 87.8222 101.147C87.8458 101.173 87.8749 101.194 87.9073 101.209C87.9398 101.223 87.975 101.23 88.0105 101.23C88.3505 101.23 88.3605 100.51 89.0105 100.51C89.2005 100.53 89.3005 100.41 89.2905 100.27ZM90.6105 99.4901C90.8105 99.4901 91.2205 99.1401 91.8105 99.4101C91.8717 99.4379 91.9413 99.441 92.0047 99.4186C92.0681 99.3962 92.1203 99.3502 92.1505 99.2901C92.3205 98.9001 91.2805 98.2901 90.4405 99.0601C90.4048 99.0945 90.3801 99.1387 90.3696 99.1871C90.3591 99.2355 90.3632 99.286 90.3815 99.332C90.3997 99.3781 90.4312 99.4177 90.4719 99.4459C90.5127 99.474 90.5609 99.4894 90.6105 99.4901ZM89.2105 101.92C88.7305 102.16 89.2105 103.18 89.7205 102.92C90.2305 102.66 89.6905 101.69 89.2105 101.92ZM91.4105 100.76C90.9405 100.99 91.4105 102.02 91.9205 101.76C92.4305 101.5 91.9005 100.52 91.4105 100.76ZM110.81 96.1101C111.414 96.0866 111.995 95.8731 112.47 95.5001C112.67 96.3901 112.35 96.9401 111.82 97.1601C111.78 97.1795 111.748 97.2119 111.728 97.252C111.708 97.2921 111.702 97.3377 111.712 97.3814C111.721 97.4252 111.745 97.4646 111.779 97.4933C111.813 97.5221 111.856 97.5386 111.9 97.5401C112.19 97.4919 112.454 97.3474 112.65 97.1301C112.892 96.812 113.04 96.4327 113.077 96.0351C113.114 95.6375 113.039 95.2374 112.86 94.8801C112.832 94.8156 112.78 94.7643 112.715 94.7364C112.65 94.7086 112.577 94.7064 112.51 94.7301C112.018 95.2025 111.417 95.546 110.76 95.7301C110.71 95.7367 110.664 95.7631 110.633 95.8034C110.603 95.8437 110.589 95.8947 110.595 95.9451C110.602 95.9955 110.628 96.0412 110.669 96.0721C110.709 96.1031 110.76 96.1167 110.81 96.1101ZM111.86 90.8601C111.76 90.8547 111.66 90.8803 111.575 90.9335C111.49 90.9866 111.423 91.0648 111.383 91.1573C111.344 91.2498 111.334 91.3522 111.355 91.4506C111.375 91.549 111.426 91.6387 111.499 91.7073C111.573 91.776 111.666 91.8204 111.765 91.8345C111.865 91.8487 111.966 91.8318 112.056 91.7862C112.146 91.7407 112.219 91.6686 112.267 91.5798C112.314 91.4911 112.333 91.3899 112.32 91.2901C112.313 91.1734 112.261 91.0639 112.176 90.9841C112.09 90.9042 111.977 90.8599 111.86 90.8601ZM108.91 92.6301C108.928 92.5521 108.927 92.471 108.906 92.3938C108.885 92.3166 108.846 92.2456 108.791 92.1872C108.736 92.1287 108.668 92.0844 108.593 92.0583C108.517 92.0322 108.436 92.0249 108.357 92.0372C108.278 92.0495 108.204 92.081 108.139 92.1288C108.075 92.1767 108.024 92.2395 107.99 92.3118C107.956 92.3841 107.94 92.4636 107.943 92.5435C107.947 92.6234 107.97 92.7012 108.01 92.7701C108.057 92.8597 108.13 92.9325 108.22 92.9781C108.309 93.0238 108.411 93.04 108.511 93.0245C108.611 93.009 108.703 92.9626 108.774 92.8918C108.846 92.821 108.894 92.7295 108.91 92.6301ZM112 89.5401C112.045 89.5237 112.087 89.4982 112.121 89.4652C112.156 89.4322 112.184 89.3925 112.202 89.3484C112.221 89.3044 112.231 89.257 112.23 89.2091C112.23 89.1612 112.22 89.1139 112.2 89.0701C112.06 88.6201 111.2 88.6001 110.74 88.8401C110.52 88.9501 110.36 89.1101 110.37 89.3201C110.38 89.5301 110.59 89.6901 110.85 89.7001C111.24 89.7176 111.63 89.6633 112 89.5401ZM109 90.7301C109 90.4601 108.77 90.1901 108.26 90.3201C108.006 90.3821 107.774 90.5137 107.59 90.7001C107.15 91.1401 107.39 91.5901 107.74 91.5901C108.09 91.5901 108.89 91.0901 109 90.7301ZM157.57 76.1701C154.4 71.5901 147.47 61.6501 143.89 57.4001C143.864 57.3782 143.83 57.3662 143.795 57.3662C143.761 57.3662 143.727 57.3782 143.7 57.4001L123.09 69.4301C123.035 69.4651 122.996 69.5203 122.981 69.5838C122.966 69.6473 122.977 69.7142 123.01 69.7701C127.35 76.6901 132.94 84.1301 137.75 90.7701C137.768 90.7968 137.792 90.8196 137.819 90.8372C137.846 90.8547 137.876 90.8667 137.908 90.8723C137.939 90.8779 137.972 90.877 138.003 90.8698C138.035 90.8625 138.064 90.849 138.09 90.8301C144.09 86.5901 149.41 82.8301 157.52 76.5301C157.548 76.5104 157.572 76.4852 157.589 76.4561C157.607 76.427 157.618 76.3946 157.623 76.3609C157.628 76.3272 157.625 76.2929 157.616 76.2601C157.607 76.2273 157.592 76.1966 157.57 76.1701ZM141.05 68.6401C141.021 68.6128 140.986 68.5935 140.947 68.5842C140.908 68.5749 140.867 68.5758 140.829 68.5869C140.791 68.598 140.756 68.6189 140.728 68.6475C140.7 68.6761 140.681 68.7115 140.67 68.7501C140.631 69.0575 140.473 69.3373 140.23 69.5301C139.88 69.6901 139.55 69.1901 139.36 69.1601C139.302 69.1512 139.243 69.1648 139.195 69.1983C139.146 69.2318 139.113 69.2825 139.1 69.3401C138.98 70.0701 138.58 70.8401 138 70.9101C137.42 70.9801 137.32 70.7301 137.17 70.8301C137.141 70.8452 137.116 70.8682 137.099 70.8964C137.082 70.9246 137.073 70.957 137.073 70.9901C137.073 71.0232 137.082 71.0556 137.099 71.0838C137.116 71.112 137.141 71.135 137.17 71.1501C138.09 71.6301 139.1 71.2201 139.46 69.7701C139.586 69.8862 139.743 69.9632 139.912 69.9916C140.08 70.0201 140.254 69.9987 140.41 69.9301C140.678 69.7795 140.878 69.5328 140.97 69.2401C141.959 70.4304 142.541 71.9056 142.63 73.4501C142.943 74.1629 143.372 74.8185 143.9 75.3901C143.65 76.3901 143.17 76.9301 141.51 76.9001C141.309 76.2678 141.023 75.6657 140.66 75.1101C140.43 74.7601 138.83 75.2301 137.08 71.5501C137.059 71.5042 137.02 71.4684 136.972 71.45C136.925 71.4316 136.872 71.432 136.825 71.4511C136.778 71.4702 136.74 71.5066 136.718 71.5529C136.697 71.5992 136.694 71.6518 136.71 71.7001C136.877 72.1464 137.074 72.5808 137.3 73.0001C136.06 73.4301 134.85 71.6701 136.6 70.7901C136.641 70.7769 136.675 70.7515 136.7 70.7174C136.725 70.6833 136.738 70.6422 136.738 70.6001C136.738 70.558 136.725 70.5169 136.7 70.4828C136.675 70.4487 136.641 70.4233 136.6 70.4101C134.76 69.9701 134.48 68.5401 135.53 67.2601C136.58 65.9801 137.91 66.0601 139.02 67.6901C139.038 67.7214 139.063 67.7474 139.094 67.7656C139.125 67.7837 139.16 67.7933 139.195 67.7933C139.231 67.7933 139.266 67.7837 139.297 67.7656C139.328 67.7474 139.353 67.7214 139.37 67.6901C139.485 67.439 139.677 67.2309 139.918 67.0961C140.159 66.9613 140.436 66.9066 140.71 66.9401C141.33 67.0301 141.38 67.5201 141.39 68.0101V68.1901C141.39 68.5401 141.98 68.1901 142.23 68.9801C142.282 69.1485 142.294 69.3266 142.264 69.5002C142.234 69.6739 142.165 69.8382 142.06 69.9801C141.782 69.4923 141.443 69.042 141.05 68.6401ZM139.05 81.4701C139.49 79.9075 140.3 78.4738 141.41 77.2901C142.046 77.43 142.709 77.3598 143.3 77.0901C143.59 76.9235 143.833 76.6871 144.008 76.4024C144.183 76.1176 144.283 75.7937 144.3 75.4601C145.586 74.8445 146.998 74.5376 148.423 74.5636C149.849 74.5896 151.248 74.948 152.51 75.6101C148.89 78.2901 142.88 82.5201 139.16 85.1301C138.749 83.9489 138.721 82.6681 139.08 81.4701H139.05ZM152.87 75.3401C151.553 74.5842 150.072 74.1609 148.554 74.1069C147.036 74.0528 145.528 74.3697 144.16 75.0301C143.766 74.499 143.399 73.9483 143.06 73.3801C143.034 72.2511 142.732 71.1457 142.18 70.1601C142.388 70.002 142.543 69.7841 142.623 69.5356C142.704 69.2871 142.706 69.02 142.63 68.7701C142.594 68.5507 142.491 68.3478 142.335 68.1887C142.179 68.0296 141.979 67.9219 141.76 67.8801C141.822 67.5407 141.755 67.1906 141.573 66.8977C141.391 66.6048 141.106 66.3902 140.775 66.2954C140.443 66.2007 140.088 66.2326 139.779 66.385C139.469 66.5374 139.227 66.7994 139.1 67.1201C136.37 63.3401 132 69.3401 135.95 70.6201C135.613 70.8156 135.363 71.1325 135.252 71.506C135.14 71.8796 135.175 72.2817 135.35 72.6301C135.525 72.9786 135.826 73.2471 136.193 73.3809C136.559 73.5147 136.962 73.5037 137.32 73.3501C137.372 73.337 137.419 73.3131 137.46 73.2801C137.747 73.8267 138.152 74.3029 138.644 74.6747C139.137 75.0464 139.706 75.3044 140.31 75.4301C140.58 75.9501 140.83 76.4301 141.05 77.0301C138.8 79.4401 137.58 82.3901 138.79 85.4001L137.6 86.2501C136.6 84.7601 133.81 81.3501 126.1 70.1501C131.96 66.3301 138.27 62.5101 143.04 59.9101C147.39 65.1601 152.28 72.3601 153.8 74.6401L152.87 75.3401ZM121.15 46.6801C121.477 46.7042 121.804 46.6293 122.087 46.465C122.371 46.3007 122.599 46.0548 122.74 45.7593C122.882 45.4637 122.931 45.1324 122.882 44.8084C122.832 44.4844 122.686 44.1829 122.463 43.9431C122.239 43.7034 121.949 43.5366 121.629 43.4645C121.309 43.3924 120.975 43.4183 120.671 43.5389C120.366 43.6595 120.105 43.8692 119.921 44.1405C119.737 44.4119 119.639 44.7324 119.64 45.0601C119.627 45.4749 119.778 45.8781 120.061 46.1817C120.344 46.4853 120.736 46.6645 121.15 46.6801ZM121.15 43.9301C121.38 43.9017 121.613 43.9439 121.818 44.0511C122.024 44.1583 122.191 44.3254 122.299 44.5303C122.407 44.7351 122.45 44.9679 122.422 45.1978C122.395 45.4276 122.298 45.6436 122.144 45.817C121.991 45.9903 121.788 46.1129 121.563 46.1683C121.339 46.2237 121.102 46.2094 120.886 46.1273C120.669 46.0451 120.483 45.899 120.352 45.7083C120.22 45.5177 120.15 45.2916 120.15 45.0601C120.137 44.7785 120.234 44.5026 120.42 44.2915C120.607 44.0803 120.869 43.9506 121.15 43.9301ZM112 48.0001C113.871 47.8148 115.756 47.8417 117.62 48.0801C119.51 48.3145 121.372 48.7332 123.18 49.3301C123.225 49.3369 123.271 49.3265 123.309 49.301C123.346 49.2754 123.373 49.2366 123.383 49.1923C123.393 49.148 123.386 49.1015 123.363 49.0621C123.341 49.0227 123.304 48.9935 123.26 48.9801C119.67 47.547 115.769 47.0748 111.94 47.6101C111.71 47.6001 111.64 48.0001 112 48.0001ZM113.78 44.2401C114.966 44.9653 116.01 45.9006 116.86 47.0001C116.894 47.0298 116.936 47.0474 116.981 47.0502C117.026 47.053 117.07 47.0407 117.107 47.0154C117.143 46.9901 117.171 46.9531 117.184 46.9105C117.198 46.8678 117.196 46.8219 117.18 46.7801C116.18 44.7801 114.07 43.7801 113.79 43.9201C113.763 43.9364 113.74 43.9594 113.724 43.9869C113.708 44.0144 113.699 44.0455 113.698 44.0774C113.697 44.1092 113.704 44.1409 113.718 44.1693C113.733 44.1977 113.754 44.2221 113.78 44.2401ZM84.5005 35.3101C88.8305 38.5501 88.6205 38.4401 88.7205 38.4401C88.8205 38.4401 88.7205 38.6701 90.8305 34.9601C94.0505 35.6801 95.2105 36.1801 95.6705 36.2801C96.1305 36.3801 96.0705 35.9501 95.8605 35.8701C94.3083 35.3111 92.7258 34.8404 91.1205 34.4601L91.5205 33.7701C91.5338 33.7571 91.5444 33.7415 91.5516 33.7243C91.5588 33.7072 91.5625 33.6887 91.5625 33.6701C91.5625 33.6515 91.5588 33.633 91.5516 33.6159C91.5444 33.5987 91.5338 33.5831 91.5205 33.5701L87.4605 31.2201C87.4321 31.1974 87.3968 31.185 87.3605 31.185C87.3241 31.185 87.2889 31.1974 87.2605 31.2201L84.5205 35.0701C84.4986 35.0807 84.4799 35.0968 84.4662 35.1169C84.4524 35.1369 84.4442 35.1602 84.4421 35.1844C84.4401 35.2086 84.4444 35.2329 84.4547 35.255C84.4649 35.277 84.4807 35.296 84.5005 35.3101ZM90.6505 33.8901L90.4005 34.3101C89.5455 34.1298 88.6807 33.9996 87.8105 33.9201C87.7669 33.9161 87.7231 33.9246 87.6842 33.9447C87.6453 33.9647 87.6129 33.9955 87.5909 34.0333C87.5688 34.0711 87.558 34.1143 87.5597 34.1581C87.5614 34.2018 87.5756 34.2441 87.6005 34.2801C87.7105 34.4301 87.6905 34.2801 90.1205 34.8101L88.6305 37.3501L85.4205 35.0001L87.4905 32.0901L90.6505 33.8901ZM124.94 89.0901C126.717 85.4052 127.62 81.3606 127.58 77.2701C127.57 77.2185 127.541 77.1723 127.5 77.1391C127.459 77.1059 127.408 77.0878 127.355 77.0878C127.303 77.0878 127.252 77.1059 127.211 77.1391C127.17 77.1723 127.141 77.2185 127.13 77.2701C126.923 81.264 126.037 85.1934 124.51 88.8901C124.4 89.1501 124.81 89.3501 124.94 89.0901ZM106.27 41.3001C110.2 44.0001 110 44.0001 110.23 44.0001C110.271 43.9931 110.309 43.9747 110.34 43.9472C110.37 43.9197 110.393 43.8841 110.404 43.8445C110.416 43.8049 110.416 43.7628 110.405 43.7231C110.393 43.6835 110.371 43.6478 110.34 43.6201C109.185 42.5622 107.898 41.6581 106.51 40.9301C106.461 40.8983 106.402 40.8872 106.345 40.8994C106.287 40.9116 106.237 40.946 106.205 40.9951C106.174 41.0442 106.163 41.1039 106.175 41.1611C106.187 41.2183 106.221 41.2683 106.27 41.3001ZM144.23 89.2401C144.228 89.1789 144.204 89.1206 144.161 89.0763C144.119 89.0321 144.062 89.005 144 89.0001C143.32 89.0001 144.51 90.9001 142 104.47C141.996 104.524 142.011 104.578 142.043 104.622C142.075 104.666 142.121 104.698 142.174 104.711C142.227 104.724 142.282 104.718 142.331 104.694C142.38 104.67 142.419 104.63 142.44 104.58C143.999 99.6253 144.606 94.4205 144.23 89.2401ZM106.45 36.2601C110.71 37.5901 111.6 38.2601 111.87 38.1801C111.912 38.164 111.947 38.1358 111.972 38.0993C111.997 38.0627 112.011 38.0194 112.011 37.9751C112.011 37.9308 111.997 37.8875 111.972 37.8509C111.947 37.8144 111.912 37.7862 111.87 37.7701C110.193 36.8932 108.408 36.2409 106.56 35.8301C106.503 35.8155 106.443 35.8242 106.392 35.8542C106.342 35.8842 106.305 35.9331 106.29 35.9901C106.276 36.0471 106.285 36.1076 106.315 36.1582C106.345 36.2089 106.393 36.2455 106.45 36.2601Z" fill="black"/>
<path d="M93.1908 34.1101L96.7708 34.3801L96.4208 38.8501C96.4179 38.8857 96.4287 38.9211 96.451 38.949C96.4733 38.9768 96.5055 38.9952 96.5408 39.0001C99.5408 39.5101 105.281 40.4501 105.181 40.4501C105.391 40.4501 105.301 40.7601 106.091 30.8501C106.094 30.8283 106.092 30.8061 106.086 30.7851C106.079 30.7641 106.067 30.745 106.051 30.7295C106.036 30.7139 106.017 30.7022 105.996 30.6953C105.975 30.6885 105.953 30.6867 105.931 30.6901L97.1508 31.1801C97.1137 31.1801 97.0781 31.1949 97.0518 31.2211C97.0256 31.2474 97.0108 31.283 97.0108 31.3201L96.8108 33.8801C95.6154 33.7463 94.4137 33.6762 93.2108 33.6701C93.1525 33.6675 93.0955 33.6881 93.0523 33.7275C93.0092 33.7669 92.9835 33.8218 92.9808 33.8801C92.9782 33.9385 92.9988 33.9955 93.0382 34.0386C93.0776 34.0818 93.1325 34.1075 93.1908 34.1101ZM97.4008 37.5501C97.4008 37.6501 97.5808 37.6901 97.6708 37.6701C99.6409 37.2459 101.665 37.1278 103.671 37.3201C103.7 37.3234 103.729 37.321 103.757 37.313C103.785 37.3049 103.811 37.2915 103.834 37.2734C103.856 37.2553 103.875 37.2329 103.89 37.2074C103.904 37.182 103.913 37.154 103.916 37.1251C103.919 37.0962 103.917 37.067 103.909 37.039C103.901 37.0111 103.887 36.985 103.869 36.9622C103.851 36.9395 103.829 36.9205 103.803 36.9065C103.778 36.8924 103.75 36.8834 103.721 36.8801C102.997 36.7996 102.269 36.7629 101.541 36.7701V36.1401C101.776 36.2367 102.027 36.2876 102.281 36.2901C102.615 36.3154 102.946 36.2095 103.204 35.9948C103.461 35.7801 103.625 35.4736 103.661 35.1401C104.901 34.3401 104.131 32.0801 102.471 32.8501C101.281 31.3101 99.4708 32.2601 99.9408 33.4301C99.6716 33.4261 99.4097 33.5175 99.2015 33.688C98.9932 33.8586 98.852 34.0974 98.8029 34.3621C98.7538 34.6267 98.8 34.9003 98.9332 35.1342C99.0664 35.3681 99.2781 35.5473 99.5308 35.6401C99.584 35.6471 99.6381 35.6353 99.6835 35.6066C99.7289 35.578 99.7628 35.5344 99.7795 35.4833C99.7961 35.4322 99.7943 35.377 99.7745 35.3271C99.7546 35.2772 99.718 35.2358 99.6708 35.2101C98.9508 34.9701 99.2108 33.7801 100.301 33.8701C100.343 33.8747 100.386 33.8668 100.424 33.8473C100.462 33.8278 100.494 33.7977 100.515 33.7605C100.536 33.7234 100.546 33.6809 100.544 33.6382C100.541 33.5955 100.526 33.5545 100.501 33.5201C99.8208 32.6101 101.291 32.0201 102.231 33.2701C102.263 33.3144 102.311 33.3451 102.364 33.3562C102.418 33.3673 102.474 33.358 102.521 33.3301C103.771 32.6201 104.251 34.3801 103.311 34.8201C103.284 34.8339 103.26 34.8528 103.24 34.8759C103.221 34.8989 103.206 34.9256 103.196 34.9544C103.187 34.9832 103.184 35.0135 103.186 35.0437C103.189 35.0738 103.197 35.1032 103.211 35.1301C103.201 35.2252 103.169 35.3167 103.119 35.398C103.069 35.4794 103.001 35.5484 102.921 35.6001C102.718 35.7408 102.477 35.8162 102.231 35.8162C101.984 35.8162 101.743 35.7408 101.541 35.6001V35.3801C101.53 35.3286 101.502 35.2823 101.461 35.2491C101.42 35.2159 101.369 35.1978 101.316 35.1978C101.263 35.1978 101.212 35.2159 101.171 35.2491C101.13 35.2823 101.102 35.3286 101.091 35.3801V36.7201H100.481L100.631 35.2401C100.631 35.1818 100.608 35.1258 100.566 35.0846C100.525 35.0433 100.469 35.0201 100.411 35.0201C100.352 35.0201 100.297 35.0433 100.255 35.0846C100.214 35.1258 100.191 35.1818 100.191 35.2401L100.031 36.7701C99.1758 36.8248 98.33 36.9792 97.5108 37.2301C97.4574 37.2421 97.4108 37.2743 97.3808 37.3201L97.6108 34.4401C97.8608 34.4401 97.9608 34.5001 98.0608 34.4401C98.1192 34.4322 98.172 34.4014 98.2076 34.3545C98.2432 34.3076 98.2588 34.2485 98.2508 34.1901C98.2429 34.1318 98.2121 34.079 98.1652 34.0434C98.1183 34.0077 98.0592 33.9922 98.0008 34.0001H97.6908L97.8508 32.0001L105.151 31.5901L104.521 39.0001L97.3708 38.0001L97.4008 37.5501ZM131.271 63.1901C130.004 59.9626 128.283 56.9322 126.161 54.1901C126.126 54.1479 126.076 54.1204 126.021 54.113C125.967 54.1057 125.912 54.119 125.866 54.1503C125.821 54.1817 125.789 54.2289 125.777 54.2825C125.765 54.3361 125.774 54.3924 125.801 54.4401C127.688 57.3231 129.378 60.3299 130.861 63.4401C130.894 63.4945 130.947 63.5335 131.009 63.5485C131.071 63.5635 131.136 63.5533 131.191 63.5201C131.245 63.487 131.284 63.4336 131.299 63.3717C131.314 63.3098 131.304 63.2445 131.271 63.1901ZM111.371 40.3501C109.938 39.5094 108.432 38.7999 106.871 38.2301C106.816 38.206 106.755 38.204 106.699 38.2245C106.643 38.2451 106.597 38.2865 106.571 38.3401C106.549 38.3949 106.548 38.4558 106.569 38.5111C106.589 38.5664 106.629 38.6124 106.681 38.6401C107.561 39.0401 111.151 40.7701 111.251 40.7701C111.299 40.7682 111.346 40.751 111.384 40.7211C111.422 40.6912 111.449 40.65 111.463 40.6035C111.476 40.557 111.474 40.5075 111.458 40.462C111.441 40.4165 111.411 40.3773 111.371 40.3501Z" fill="black"/>
</svg>
